<?xml version="1.0" encoding="UTF-8" standalone="no"?>
<svg
   width="1024"
   height="414"
   version="1.1"
   id="svg11"
   sodipodi:docname="logo_outlined.svg"
   inkscape:version="1.3 (0e150ed6c4, 2023-07-21)"
   xmlns:inkscape="http://www.inkscape.org/namespaces/inkscape"
   xmlns:sodipodi="http://sodipodi.sourceforge.net/DTD/sodipodi-0.dtd"
   xmlns="http://www.w3.org/2000/svg"
   xmlns:svg="http://www.w3.org/2000/svg">
  <defs
     id="defs11">
    <rect
       x="-83.805248"
       y="-397.23687"
       width="853.13742"
       height="266.50069"
       id="rect1" />
    <rect
       x="167.6105"
       y="465.95718"
       width="833.02417"
       height="313.43163"
       id="rect12" />
    <rect
       x="314.89456"
       y="-228.74074"
       width="602.43878"
       height="256"
       id="rect2" />
  </defs>
  <sodipodi:namedview
     id="namedview11"
     pagecolor="#ffffff"
     bordercolor="#666666"
     borderopacity="1.0"
     inkscape:showpageshadow="2"
     inkscape:pageopacity="0.0"
     inkscape:pagecheckerboard="0"
     inkscape:deskcolor="#d1d1d1"
     inkscape:zoom="0.84375"
     inkscape:cx="772.14815"
     inkscape:cy="377.48148"
     inkscape:window-width="1920"
     inkscape:window-height="1017"
     inkscape:window-x="-8"
     inkscape:window-y="-8"
     inkscape:window-maximized="1"
     inkscape:current-layer="svg11" />
  <path
     style="font-weight:300;font-size:40px;line-height:1.25;font-family:Roboto;-inkscape-font-specification:'Roboto Light';text-align:center;baseline-shift:baseline;text-anchor:middle;white-space:pre;display:inline;overflow:visible;vector-effect:none;fill:#ffffff;stroke-linecap:round;stroke-linejoin:bevel;enable-background:accumulate;stop-color:#000000"
     d="m 517.43164,250.70508 -1.25977,1.25781 v 6.88867 c -0.30775,-0.192 -0.54249,-0.48326 -0.88085,-0.62695 -0.95728,-0.40651 -2.02645,-0.5957 -3.17383,-0.5957 -1.1983,0 -2.33018,0.24662 -3.33789,0.75586 -0.99653,0.49307 -1.85856,1.22249 -2.54883,2.13867 l -0.002,0.002 c -0.68066,0.90755 -1.18399,1.97982 -1.52735,3.1875 -0.3461,1.20681 -0.51172,2.53139 -0.51172,3.9668 v 0.33398 c 0,1.3876 0.16646,2.68817 0.51172,3.89063 l 0.002,0.002 c 0.34354,1.18462 0.84536,2.24945 1.51563,3.16797 l 0.006,0.006 c 0.67748,0.91585 1.52495,1.65726 2.50976,2.18164 l 0.0117,0.006 c 1.0089,0.5241 2.14392,0.78125 3.33985,0.78125 1.16366,0 2.24249,-0.18791 3.20898,-0.5918 l 0.002,-0.002 c 0.44353,-0.18351 0.7667,-0.53041 1.15821,-0.78906 l 1.10351,1.0625 h 1.78711 l 1.25782,-1.25782 v -24.50781 l -1.25782,-1.25781 z m 269.35547,0.95703 c -0.67299,0 -1.41608,0.26267 -1.90039,0.79101 l -0.002,0.002 c -0.43158,0.47268 -0.66407,1.13706 -0.66407,1.75781 0,0.61797 0.23488,1.26787 0.64649,1.73828 l 0.0371,0.041 c 0.49077,0.51307 1.22058,0.75586 1.88281,0.75586 0.65811,0 1.383,-0.24966 1.86719,-0.75586 0.44402,-0.46332 0.71679,-1.1359 0.71679,-1.7793 0,-0.63496 -0.27439,-1.30601 -0.72461,-1.76953 -0.4783,-0.50781 -1.19912,-0.78125 -1.85937,-0.78125 z m 25.30664,0 c -0.67299,0 -1.41803,0.26267 -1.90234,0.79101 l -0.002,0.002 c -0.43158,0.47268 -0.66406,1.13706 -0.66406,1.75781 0,0.61797 0.23488,1.26787 0.64648,1.73828 l 0.0391,0.041 c 0.49077,0.51307 1.22058,0.75586 1.88281,0.75586 0.65811,0 1.38104,-0.24967 1.86523,-0.75586 0.44402,-0.46332 0.7168,-1.13591 0.7168,-1.7793 0,-0.63555 -0.27362,-1.30793 -0.72461,-1.77148 -0.47833,-0.50654 -1.19801,-0.7793 -1.85742,-0.7793 z m -205.58398,0.31836 -1.25977,1.25976 v 23.23047 l 1.25977,1.25782 h 1.0996 0.86329 4.38671 c 1.63895,0 3.16908,-0.27615 4.5586,-0.84375 h 0.002 c 1.38466,-0.56166 2.60619,-1.3766 3.6211,-2.42774 1.01767,-1.05402 1.79712,-2.32403 2.33007,-3.76562 v -0.002 c 0.54892,-1.45655 0.81446,-3.05776 0.81446,-4.78125 v -2.10547 c 0,-1.7228 -0.26598,-3.32516 -0.81446,-4.78125 -0.53212,-1.43997 -1.31049,-2.70829 -2.32617,-3.76171 -1.00212,-1.06099 -2.20727,-1.88069 -3.57422,-2.4336 -5.8e-4,-2.4e-4 -10e-4,2.4e-4 -0.002,0 -1.37517,-0.56667 -2.87393,-0.8457 -4.46484,-0.8457 h -4.53125 -0.95899 z m 92.26953,0 -1.25977,1.25976 v 23.23047 l 1.25977,1.25782 h 1.38672 0.59179 11.45508 l 1.25781,-1.25782 v -1.6914 l -1.25781,-1.25782 h -10.19727 v -20.28125 l -1.25781,-1.25976 z m -34.76758,1.5332 -1.25781,1.25781 v 3.17774 h -1.91602 l -1.25977,1.25781 v 1.5625 l 1.25977,1.25977 h 1.91602 v 10.22851 c 0,1.26531 0.15962,2.34434 0.60351,3.26172 0.41563,0.85896 1.06972,1.57497 1.9043,1.98438 0.7572,0.3711 1.60864,0.54492 2.5,0.54492 0.42765,0 0.85533,-0.0316 1.28125,-0.0918 0.42319,-0.048 0.79325,-0.1115 1.14258,-0.22266 l 0.875,-1.26171 -0.0801,-1.61133 -1.4336,-1.1836 c -0.21848,0.0312 -0.45878,0.067 -0.71289,0.10743 -0.002,2.2e-4 -0.004,-2.2e-4 -0.006,0 -0.19624,0.0243 -0.41392,0.0391 -0.65234,0.0391 -0.2443,0 -0.4509,-0.0408 -0.65039,-0.10938 -0.0269,-0.0105 -0.0772,-0.0477 -0.16602,-0.20507 -0.0634,-0.13541 -0.17382,-0.56897 -0.17382,-1.25196 V 262.0293 H 669.5 l 1.25977,-1.25977 v -1.5625 L 669.5,257.94922 h -2.31445 v -3.17774 l -1.25977,-1.25781 z m 122.73242,0.64063 c -0.0204,0.0165 -0.10854,0.0254 0.043,0.0254 0.13925,0 0.0392,-0.0146 0.0293,-0.0254 l 0.0391,0.0391 c 0.0254,0.0254 -0.002,-0.0583 -0.002,0.0195 0,0.0586 0.0277,-0.008 -0.0176,0.0391 0.0162,-0.0169 0.10146,-0.0215 -0.0488,-0.0215 -0.10485,0 -0.0537,0.008 -0.0391,0.0137 2e-5,-0.006 -0.01,0.002 -0.01,-0.0312 0,-0.0993 -0.007,-0.0469 0.006,-0.0586 z m 25.30469,0 c -0.0203,0.0165 -0.10671,0.0254 0.0449,0.0254 0.13925,0 0.0392,-0.0146 0.0293,-0.0254 l 0.0371,0.0391 c 0.0254,0.0254 -0.002,-0.0583 -0.002,0.0195 0,0.0586 0.0277,-0.008 -0.0176,0.0391 0.0162,-0.0169 0.10342,-0.0215 -0.0469,-0.0215 -0.10655,0 -0.0566,0.008 -0.041,0.0137 3e-5,-0.006 -0.01,0.002 -0.01,-0.0312 0,-0.0993 -0.007,-0.0469 0.006,-0.0586 z m -202.31836,2.03515 h 3.27344 c 1.05717,0 1.96321,0.17899 2.75781,0.51953 l 0.006,0.002 c 0.81837,0.34691 1.49641,0.82925 2.07812,1.47265 l 0.006,0.008 c 0.57688,0.62932 1.02468,1.39273 1.34766,2.33398 l 0.004,0.01 c 0.3288,0.93159 0.50391,1.99836 0.50391,3.21875 v 2.15429 c 0,1.59745 -0.29793,2.94292 -0.86133,4.08789 -0.56439,1.13622 -1.32252,1.97148 -2.33593,2.59375 l -0.006,0.002 c -0.98016,0.60717 -2.16159,0.92968 -3.64454,0.92968 h -3.1289 z m -159.11914,1.43946 c -1.36348,0 -2.62463,0.24826 -3.73438,0.77734 -1.07852,0.51418 -2.0074,1.25459 -2.74023,2.1875 -5.4e-4,6.7e-4 -0.001,10e-4 -0.002,0.002 -0.72277,0.91025 -1.26188,1.97473 -1.6211,3.16016 l -0.002,0.008 c -0.34615,1.16974 -0.51563,2.42092 -0.51563,3.74024 v 0.66992 c 0,1.31931 0.16948,2.5705 0.51563,3.74023 l 0.002,0.01 c 0.3596,1.1747 0.89884,2.23584 1.61719,3.15234 l 0.006,0.008 c 0.73227,0.92166 1.65759,1.65768 2.73047,2.18164 l 0.0156,0.008 c 1.11715,0.52648 2.38067,0.77539 3.74414,0.77539 1.34402,0 2.62421,-0.28748 3.78125,-0.86524 l 0.004,-0.002 c 1.1542,-0.57163 2.12879,-1.38265 2.86523,-2.39844 0.75748,-1.04483 1.18028,-2.28244 1.24414,-3.59765 l -1.25781,-1.31836 h -1.83398 l -1.25586,1.16601 c -0.049,0.66971 -0.23238,1.13276 -0.53321,1.51563 l -0.008,0.0117 c -0.32899,0.42846 -0.72412,0.73859 -1.25586,0.96875 l -0.008,0.002 c -0.5413,0.23785 -1.10664,0.35547 -1.74219,0.35547 -0.82639,0 -1.45085,-0.1533 -1.93554,-0.4082 -0.5184,-0.28899 -0.91692,-0.65303 -1.24219,-1.13477 -0.33949,-0.52924 -0.59666,-1.13122 -0.76758,-1.83008 -0.16753,-0.73998 -0.25391,-1.51769 -0.25391,-2.33984 v -0.66992 c 0,-0.82561 0.0877,-1.60021 0.25586,-2.33008 2.8e-4,-10e-4 -2.8e-4,-0.003 0,-0.004 0.17237,-0.71088 0.43071,-1.31244 0.76758,-1.82617 0.3268,-0.49263 0.72055,-0.85418 1.23438,-1.13086 l 0.006,-0.002 c 0.48622,-0.26522 1.10548,-0.42188 1.91992,-0.42188 0.68549,0 1.26085,0.13721 1.79101,0.40625 0.52533,0.26659 0.91667,0.61909 1.23828,1.11328 0.30443,0.46773 0.48842,1.03134 0.53125,1.77735 l 1.25782,1.1875 h 1.83398 l 1.25781,-1.3125 c -0.0611,-1.44077 -0.44584,-2.76769 -1.17578,-3.88867 -0.71042,-1.09101 -1.68035,-1.96035 -2.84375,-2.55469 -1.16942,-0.59742 -2.48678,-0.88867 -3.89062,-0.88867 z m 17.24609,0 c -1.1783,0 -2.27805,0.24167 -3.23242,0.75976 l -0.006,0.004 c -0.25073,0.13808 -0.39304,0.41164 -0.62109,0.58203 l -1.03907,-1.02539 h -1.86523 l -1.25977,1.25781 v 17.26367 l 1.25977,1.25782 h 1.89844 L 464.25,276.4707 v -11.65039 c 0.0117,-0.0399 0.009,-0.0916 0.0215,-0.13086 0.18331,-0.58482 0.4342,-1.06392 0.74805,-1.46679 l 0.002,-0.002 c 0.30868,-0.3929 0.66812,-0.68068 1.12696,-0.89843 l 0.0156,-0.008 c 0.43308,-0.21286 0.95419,-0.33398 1.61524,-0.33398 0.20818,0 0.38757,0.01 0.53711,0.0254 0.18032,0.019 0.36025,0.0437 0.54101,0.0723 l 1.45508,-1.19726 0.0645,-1.75586 -0.13281,0.51758 -0.64258,-1.72461 c -0.29898,-0.12452 -0.55768,-0.16992 -0.85156,-0.20899 -0.29524,-0.0516 -0.5941,-0.0801 -0.89258,-0.0801 z m 10.27539,0 c -1.16063,0 -2.28939,0.24266 -3.34179,0.71875 l -0.006,0.002 c -1.04714,0.47941 -1.98116,1.18394 -2.77735,2.07812 v 0.002 c -0.79271,0.8918 -1.41373,1.95233 -1.86523,3.15234 l -0.004,0.01 c -0.45124,1.23177 -0.66797,2.58528 -0.66797,4.03906 v 0.68555 c 0,1.36406 0.214,2.65633 0.65235,3.84961 l 0.002,0.004 c 0.43404,1.16951 1.05727,2.21139 1.86328,3.0918 0.80708,0.88158 1.77824,1.57628 2.87891,2.05859 1.1149,0.48856 2.33534,0.72852 3.61718,0.72852 1.14422,0 2.19231,-0.15261 3.13477,-0.48828 l 0.0137,-0.006 c 0.88917,-0.32887 1.68307,-0.76692 2.35938,-1.32617 l 0.0117,-0.01 c 0.63041,-0.53343 1.17716,-1.1257 1.62695,-1.77539 l -0.26563,-1.71289 -1.19726,-0.92578 -1.76758,0.23047 c -0.52793,0.68898 -1.08423,1.14441 -1.68164,1.43164 -7.4e-4,3.5e-4 -10e-4,0.002 -0.002,0.002 -0.59788,0.28178 -1.29878,0.43555 -2.15235,0.43555 -0.71376,0 -1.31253,-0.1369 -1.85351,-0.39844 -0.5717,-0.28687 -1.04673,-0.66102 -1.45899,-1.14844 -0.41758,-0.50411 -0.74486,-1.08953 -0.98633,-1.78711 -0.14257,-0.41187 -0.15838,-0.89081 -0.21679,-1.3457 h 10.91406 l 1.25781,-1.25781 v -1.16602 c 0,-1.26717 -0.16326,-2.4539 -0.5039,-3.54883 -0.34055,-1.10496 -0.85851,-2.09524 -1.55664,-2.93359 -0.70209,-0.85393 -1.58617,-1.52473 -2.59961,-1.98242 -1.02838,-0.47985 -2.18498,-0.70703 -3.42774,-0.70703 z m 16.70508,0 c -1.10966,0 -2.15764,0.16325 -3.125,0.50195 -0.001,3.9e-4 -0.003,-3.9e-4 -0.004,0 -0.92668,0.31822 -1.76037,0.76452 -2.4707,1.3457 -0.69979,0.57255 -1.26871,1.24962 -1.67187,2.01563 l -0.008,0.0156 c -0.39075,0.76802 -0.59961,1.60484 -0.59961,2.45313 l 1.24805,1.25976 1.89844,0.0156 1.26953,-1.25977 c 0,-0.37883 0.0922,-0.65519 0.33594,-0.97851 4.3e-4,-5.8e-4 -4.4e-4,-10e-4 0,-0.002 0.26565,-0.34814 0.62344,-0.63404 1.15039,-0.86914 l 0.01,-0.004 c 0.51893,-0.23588 1.12743,-0.36524 1.8711,-0.36524 0.82966,0 1.4504,0.13956 1.89258,0.35352 0.45952,0.22235 0.74232,0.48755 0.95703,0.86328 0.2171,0.37992 0.34375,0.85335 0.34375,1.49805 v 0.6875 h -2.26758 c -1.29806,0 -2.49625,0.13583 -3.5957,0.42187 -0.002,3.8e-4 -0.002,0.002 -0.004,0.002 -1.08421,0.27451 -2.05178,0.69079 -2.87695,1.26954 -0.82642,0.56918 -1.49886,1.30119 -1.95704,2.1621 -0.4647,0.86269 -0.6914,1.84 -0.6914,2.85938 0,1.14103 0.29256,2.2347 0.87305,3.17969 l 0.004,0.008 c 0.58118,0.93258 1.4219,1.679 2.43555,2.20508 l 0.0117,0.006 c 1.04078,0.52697 2.22723,0.77539 3.5039,0.77539 1.13415,0 2.18678,-0.16838 3.14063,-0.5293 l 0.01,-0.004 c 0.67572,-0.26127 1.23539,-0.64757 1.79493,-1.0332 0.0326,0.12014 0.0441,0.273 0.082,0.38672 l 1.19531,0.85938 h 2.04102 l 1.25976,-1.25782 v -0.20703 l -0.0996,-0.48828 c -0.10931,-0.25962 -0.22559,-0.68651 -0.31055,-1.24219 v -0.006 c -0.0778,-0.58515 -0.11718,-1.1458 -0.11718,-1.67968 v -8.34375 c 0,-1.43579 -0.31867,-2.74177 -1.01953,-3.81446 -0.66279,-1.02976 -1.61845,-1.82768 -2.76368,-2.33008 -1.12085,-0.49608 -2.38196,-0.73046 -3.74609,-0.73046 z m 36.17188,0 c -1.31507,0 -2.55712,0.25148 -3.67969,0.76757 -1.10484,0.49725 -2.07102,1.21572 -2.85742,2.12696 -0.78052,0.9044 -1.38031,1.97023 -1.79883,3.16601 l -0.004,0.01 c -0.41022,1.20652 -0.60937,2.50874 -0.60937,3.88476 v 0.50977 c 0,1.37602 0.19915,2.67629 0.60937,3.88281 l 0.004,0.0156 c 0.41853,1.18387 1.01784,2.24579 1.79297,3.15625 l 0.0117,0.0137 c 0.7944,0.90611 1.76096,1.6259 2.86132,2.13281 l 0.01,0.004 c 1.1235,0.50495 2.36881,0.75 3.69141,0.75 1.32259,0 2.56381,-0.24474 3.67968,-0.75196 l 0.006,-0.002 c 1.10199,-0.50766 2.06607,-1.23045 2.85156,-2.14062 0.78973,-0.91347 1.39182,-1.98302 1.80079,-3.17383 l 0.002,-0.004 c 0.41022,-1.20652 0.60937,-2.50679 0.60937,-3.88281 v -0.50977 c 0,-1.37602 -0.19915,-2.67824 -0.60937,-3.88476 -0.408,-1.19998 -1.01014,-2.26969 -1.80274,-3.17578 l -0.002,-0.002 c -0.78764,-0.91203 -1.76123,-1.62887 -2.875,-2.125 -1.12332,-0.51578 -2.36849,-0.76757 -3.6914,-0.76757 z m 26.90039,0 c -1.14739,0 -2.22224,0.18845 -3.19336,0.58984 l -0.006,0.002 c -0.44835,0.18783 -0.77505,0.55024 -1.16992,0.82032 l -1.13672,-1.0918 h -1.78711 l -1.25782,1.25781 v 23.90039 l 1.25782,1.25977 h 1.91601 l 1.25782,-1.25977 v -6.23437 c 0.32283,0.18694 0.57346,0.46953 0.92773,0.60937 0.97848,0.38625 2.06114,0.56641 3.22266,0.56641 1.22254,0 2.3712,-0.25284 3.3789,-0.78321 l 0.004,-0.004 c 0.98681,-0.52545 1.83377,-1.26913 2.50195,-2.18945 l 0.004,-0.008 c 0.66061,-0.92236 1.14593,-1.99046 1.46679,-3.17773 1.9e-4,-6.7e-4 0.002,-10e-4 0.002,-0.002 0.33101,-1.19694 0.49023,-2.4898 0.49023,-3.8711 v -0.33398 c 0,-1.43068 -0.15969,-2.74891 -0.49219,-3.95117 -0.31997,-1.20576 -0.80262,-2.27828 -1.4707,-3.1875 l -0.002,-0.002 c -0.6733,-0.92662 -1.53885,-1.6607 -2.54883,-2.15429 -1.01042,-0.50949 -2.1511,-0.75586 -3.36523,-0.75586 z m 17.50195,0 c -1.31373,0 -2.55411,0.25253 -3.67578,0.76757 -1.10545,0.49727 -2.07458,1.21533 -2.86133,2.12696 -0.78051,0.9044 -1.3803,1.97023 -1.79883,3.16601 l -0.004,0.01 c -0.41022,1.20652 -0.60938,2.50874 -0.60938,3.88476 v 0.50977 c 0,1.37601 0.19916,2.67629 0.60938,3.88281 l 0.006,0.0156 c 0.41855,1.18386 1.0159,2.24578 1.79102,3.15625 l 0.0137,0.0137 c 0.7944,0.90612 1.75901,1.62591 2.85938,2.13281 l 0.0117,0.004 c 1.1235,0.50495 2.3688,0.75 3.6914,0.75 1.3226,0 2.56382,-0.24474 3.67969,-0.75196 l 0.006,-0.002 c 1.10115,-0.50726 2.06444,-1.22947 2.84961,-2.13867 0.79027,-0.91375 1.39357,-1.98441 1.80273,-3.17578 v -0.004 c 0.41022,-1.20652 0.60938,-2.5068 0.60938,-3.88281 v -0.50977 c 0,-1.37602 -0.19916,-2.67824 -0.60938,-3.88476 -0.40859,-1.20174 -1.01232,-2.27276 -1.80664,-3.17969 -0.78713,-0.91046 -1.75866,-1.62751 -2.87109,-2.12305 -1.12377,-0.51632 -2.36977,-0.76757 -3.69336,-0.76757 z m 18.44531,0 c -1.1783,0 -2.28,0.24167 -3.23437,0.75976 l -0.006,0.004 c -0.25085,0.13815 -0.39295,0.41155 -0.6211,0.58203 l -1.03711,-1.02539 h -1.86718 l -1.25782,1.25781 v 17.26367 l 1.25782,1.25782 h 1.89843 l 1.25782,-1.25782 v -11.63867 c 0.0126,-0.0435 0.01,-0.0997 0.0234,-0.14258 0.18331,-0.58483 0.43225,-1.06392 0.7461,-1.46679 l 0.002,-0.002 c 0.30867,-0.3929 0.66811,-0.68068 1.12695,-0.89843 l 0.0156,-0.008 c 0.43307,-0.21286 0.95419,-0.33398 1.61523,-0.33398 0.20818,0 0.38953,0.01 0.53907,0.0254 0.18032,0.019 0.36025,0.0437 0.54101,0.0723 l 1.45313,-1.19726 0.0644,-1.75586 -0.13281,0.51758 -0.64063,-1.72461 c -0.29899,-0.12453 -0.55768,-0.16992 -0.85156,-0.20899 -0.29585,-0.0518 -0.59348,-0.0801 -0.89258,-0.0801 z m 39.75977,0 c -1.10967,0 -2.15765,0.16324 -3.125,0.50195 -0.001,3.9e-4 -0.003,-3.9e-4 -0.004,0 -0.92667,0.31821 -1.76037,0.76452 -2.4707,1.3457 -0.69979,0.57255 -1.26871,1.24962 -1.67188,2.01563 l -0.01,0.0156 c -0.39074,0.76802 -0.59766,1.60485 -0.59766,2.45313 l 1.24609,1.25976 1.9004,0.0156 1.26757,-1.25977 c 0,-0.37792 0.0916,-0.65423 0.33399,-0.97656 0.26595,-0.34994 0.62534,-0.63705 1.15429,-0.87305 l 0.008,-0.004 c 0.51893,-0.23588 1.12937,-0.36524 1.87304,-0.36524 0.82966,0 1.4504,0.13956 1.89258,0.35352 0.45953,0.22235 0.74038,0.48755 0.95508,0.86328 0.21711,0.37993 0.3457,0.85335 0.3457,1.49805 v 0.6875 h -2.26757 c -1.29736,0 -2.49673,0.13615 -3.59571,0.42187 -8.9e-4,2.3e-4 -10e-4,0.002 -0.002,0.002 -1.08495,0.2745 -2.05326,0.69046 -2.87891,1.26954 -0.82642,0.56918 -1.49886,1.30118 -1.95703,2.1621 -0.46472,0.86269 -0.6914,1.83999 -0.6914,2.85938 0,1.14102 0.29255,2.2347 0.87304,3.17969 l 0.004,0.008 c 0.58118,0.93259 1.4219,1.67901 2.43555,2.20508 l 0.01,0.006 c 1.04078,0.52697 2.22723,0.77539 3.50391,0.77539 1.13414,0 2.18873,-0.16838 3.14258,-0.5293 l 0.008,-0.004 c 0.67627,-0.26149 1.23698,-0.64715 1.79687,-1.0332 0.0326,0.12014 0.0441,0.273 0.082,0.38672 l 1.19336,0.85938 h 2.04297 l 1.25781,-1.25782 v -0.20703 l -0.0977,-0.48828 c -0.10931,-0.25962 -0.22559,-0.68651 -0.31055,-1.24219 v -0.006 c -0.0778,-0.58515 -0.11719,-1.14385 -0.11719,-1.67773 v -8.3457 c 0,-1.43417 -0.31836,-2.73855 -1.01757,-3.81055 -0.66261,-1.03157 -1.6174,-1.83078 -2.76368,-2.33399 -5.6e-4,-2.4e-4 -10e-4,2.5e-4 -0.002,0 -1.12127,-0.49659 -2.38127,-0.73046 -3.74609,-0.73046 z m 18.89062,0 c -1.15161,0 -2.249,0.22809 -3.24414,0.69336 -0.45507,0.21275 -0.79058,0.5979 -1.19336,0.89062 v -0.0332 l -1.25781,-1.23047 h -1.81836 l -1.25977,1.25781 v 17.26367 l 1.25977,1.25782 h 1.89844 l 1.25781,-1.25782 v -11.52734 c 0.19766,-0.52556 0.4366,-1.02985 0.77734,-1.49805 0.36891,-0.50304 0.80413,-0.89454 1.33789,-1.20312 l 0.006,-0.002 c 0.48263,-0.28214 1.04403,-0.43554 1.77344,-0.43554 0.68446,0 1.20965,0.11842 1.61524,0.31054 0.3384,0.1603 0.58246,0.3924 0.81054,0.86329 l 0.004,0.008 c 0.20047,0.40741 0.36523,1.15522 0.36523,2.21875 v 11.26562 l 1.25782,1.25782 h 1.91601 l 1.25781,-1.25782 v -11.24804 c 0,-1.22782 -0.13551,-2.31665 -0.4414,-3.27735 -0.28821,-0.94837 -0.73781,-1.78377 -1.36914,-2.44726 -0.60717,-0.65876 -1.37201,-1.15412 -2.23047,-1.44922 -0.83511,-0.28708 -1.74713,-0.41992 -2.72266,-0.41992 z m 27.30078,0 c -1.16063,0 -2.29134,0.24265 -3.34375,0.71875 l -0.006,0.002 c -1.04713,0.47941 -1.98115,1.18394 -2.77734,2.07812 v 0.002 c -0.79271,0.8918 -1.41374,1.95233 -1.86523,3.15234 l -0.004,0.01 c -0.45124,1.23177 -0.66602,2.58528 -0.66602,4.03906 v 0.68555 c 0,1.36407 0.21205,2.65634 0.65039,3.84961 l 0.002,0.004 c 0.43404,1.16951 1.05727,2.21139 1.86328,3.0918 0.80707,0.88158 1.78019,1.57628 2.88086,2.05859 1.1149,0.48855 2.33339,0.72852 3.61523,0.72852 1.14422,0 2.19231,-0.15261 3.13477,-0.48828 l 0.0156,-0.006 c 0.88917,-0.32887 1.68307,-0.76693 2.35938,-1.32617 l 0.01,-0.01 c 0.63041,-0.53343 1.17717,-1.12571 1.62696,-1.77539 l -0.26563,-1.71289 -1.19531,-0.92578 -1.76953,0.23047 c -0.52793,0.68898 -1.08423,1.14441 -1.68164,1.43164 -7.5e-4,3.5e-4 -10e-4,0.002 -0.002,0.002 -0.59787,0.28178 -1.29877,0.43555 -2.15234,0.43555 -0.71304,0 -1.311,-0.13741 -1.85156,-0.39844 -0.56917,-0.2856 -1.04409,-0.65831 -1.45508,-1.14258 l -0.002,-0.004 c -0.41836,-0.50454 -0.74845,-1.09057 -0.99024,-1.78906 -0.14256,-0.41183 -0.15642,-0.89086 -0.21484,-1.3457 h 10.91211 l 1.25781,-1.25781 v -1.16602 c 0,-1.26717 -0.16326,-2.4539 -0.50391,-3.54883 -0.34054,-1.10496 -0.8585,-2.09524 -1.55664,-2.93359 -0.70208,-0.85393 -1.58421,-1.52473 -2.59765,-1.98242 -1.02838,-0.47985 -2.18498,-0.70703 -3.42774,-0.70703 z m 42.08985,0 c -1.16064,0 -2.29135,0.24265 -3.34375,0.71875 l -0.006,0.002 c -1.04713,0.47941 -1.98115,1.18395 -2.77735,2.07812 v 0.002 c -0.79271,0.89181 -1.41374,1.95233 -1.86523,3.15234 l -0.004,0.01 c -0.45125,1.23178 -0.66601,2.58528 -0.66601,4.03906 v 0.68555 c 0,1.36407 0.21203,2.65633 0.65039,3.84961 l 0.002,0.004 c 0.43404,1.16951 1.05728,2.21139 1.86328,3.0918 0.80708,0.88158 1.7802,1.57628 2.88086,2.05859 1.11491,0.48855 2.33339,0.72852 3.61524,0.72852 1.14421,0 2.1923,-0.15261 3.13476,-0.48828 l 0.0156,-0.006 c 0.88917,-0.32887 1.68306,-0.76692 2.35937,-1.32617 l 0.01,-0.01 c 0.6304,-0.53343 1.17716,-1.12571 1.62695,-1.77539 l -0.26562,-1.71289 -1.19532,-0.92578 -1.76953,0.23047 c -0.52792,0.68898 -1.08423,1.14441 -1.68164,1.43164 -7.4e-4,3.5e-4 -10e-4,0.002 -0.002,0.002 -0.59788,0.28179 -1.29878,0.43555 -2.15235,0.43555 -0.71303,0 -1.311,-0.13741 -1.85156,-0.39844 -0.56917,-0.2856 -1.04409,-0.65831 -1.45508,-1.14258 l -0.002,-0.004 c -0.41836,-0.50454 -0.74844,-1.09056 -0.99023,-1.78906 -0.14256,-0.41184 -0.15643,-0.89086 -0.21485,-1.3457 h 10.91211 l 1.25781,-1.25781 v -1.16602 c 0,-1.26581 -0.16205,-2.45098 -0.50195,-3.54492 -0.34052,-1.10671 -0.85954,-2.09805 -1.55859,-2.9375 -0.7021,-0.85392 -1.58422,-1.52474 -2.59766,-1.98242 -1.02837,-0.47986 -2.18497,-0.70703 -3.42773,-0.70703 z m 17.19922,0 c -1.31507,0 -2.55712,0.25147 -3.67969,0.76757 -1.10483,0.49724 -2.07102,1.21574 -2.85742,2.12696 -0.78052,0.9044 -1.38031,1.97023 -1.79883,3.16601 l -0.004,0.01 c -0.41021,1.20652 -0.60937,2.50874 -0.60937,3.88476 v 0.50977 c 0,1.37601 0.19916,2.67629 0.60937,3.88281 l 0.006,0.0156 c 0.41854,1.18387 1.01589,2.24578 1.79102,3.15625 l 0.0117,0.0137 c 0.7944,0.90612 1.76096,1.62591 2.86132,2.13281 l 0.01,0.004 c 1.12351,0.50494 2.36881,0.75 3.69141,0.75 1.32259,0 2.56381,-0.24474 3.67968,-0.75196 l 0.006,-0.002 c 1.102,-0.50765 2.06607,-1.23044 2.85157,-2.14062 0.78973,-0.91348 1.39182,-1.98301 1.80078,-3.17383 l 0.002,-0.004 c 0.41022,-1.20652 0.60937,-2.5068 0.60937,-3.88281 v -0.50977 c 0,-1.37602 -0.19915,-2.67824 -0.60937,-3.88476 -0.40799,-1.19999 -1.01013,-2.26969 -1.80273,-3.17578 l -0.002,-0.002 c -0.78763,-0.91203 -1.76123,-1.62887 -2.875,-2.125 -1.12332,-0.51579 -2.36848,-0.76757 -3.6914,-0.76757 z m 19.19336,0 c -1.15162,0 -2.24901,0.22809 -3.24415,0.69336 -0.45507,0.21275 -0.79058,0.5979 -1.19335,0.89062 v -0.0332 l -1.25782,-1.23047 h -1.81836 l -1.25976,1.25781 v 17.26367 l 1.25976,1.25782 h 1.89844 l 1.25781,-1.25782 v -11.52734 c 0.19765,-0.52556 0.4366,-1.02985 0.77735,-1.49805 0.36889,-0.50304 0.80412,-0.89454 1.33789,-1.20312 l 0.006,-0.002 c 0.48262,-0.28215 1.04403,-0.43554 1.77343,-0.43554 0.68446,0 1.20965,0.11842 1.61524,0.31054 0.3384,0.1603 0.58246,0.3924 0.81055,0.86329 l 0.004,0.008 c 0.20047,0.40741 0.36524,1.15522 0.36524,2.21875 v 11.26562 l 1.25781,1.25782 h 1.91601 l 1.25782,-1.25782 v -11.24804 c 0,-1.22782 -0.13552,-2.31665 -0.44141,-3.27735 -0.28793,-0.94747 -0.73485,-1.78212 -1.36523,-2.44531 -0.60764,-0.66037 -1.37452,-1.15559 -2.23438,-1.45117 -0.83511,-0.28708 -1.74713,-0.41992 -2.72265,-0.41992 z m 16.81835,0 c -1.36347,0 -2.62461,0.24826 -3.73437,0.77734 -1.07853,0.51417 -2.00741,1.25459 -2.74023,2.1875 -5.4e-4,6.7e-4 -10e-4,10e-4 -0.002,0.002 -0.72275,0.91025 -1.26187,1.97473 -1.62109,3.16016 l -0.002,0.008 c -0.34615,1.16974 -0.51563,2.42092 -0.51563,3.74024 v 0.66992 c 0,1.31931 0.16948,2.57049 0.51563,3.74023 l 0.002,0.01 c 0.3596,1.17469 0.89885,2.23584 1.61719,3.15234 l 0.006,0.008 c 0.73227,0.92166 1.65759,1.65768 2.73046,2.18164 l 0.0156,0.008 c 1.11715,0.52647 2.38067,0.77539 3.74414,0.77539 1.34401,0 2.62421,-0.28749 3.78125,-0.86524 l 0.004,-0.002 c 1.15419,-0.57164 2.12879,-1.38265 2.86523,-2.39844 0.75748,-1.04483 1.18028,-2.28244 1.24414,-3.59765 l -1.25781,-1.31836 h -1.83399 l -1.25586,1.16601 c -0.049,0.66972 -0.23042,1.13277 -0.53125,1.51563 l -0.01,0.0117 c -0.329,0.42846 -0.72414,0.7386 -1.25586,0.96875 l -0.008,0.002 c -0.54131,0.23785 -1.10664,0.35547 -1.74219,0.35547 -0.82639,0 -1.45086,-0.15331 -1.93555,-0.4082 -0.5184,-0.28899 -0.91692,-0.65304 -1.24218,-1.13477 -0.33949,-0.52924 -0.59667,-1.13123 -0.76758,-1.83008 -0.16754,-0.73997 -0.25391,-1.5177 -0.25391,-2.33984 v -0.66992 c 0,-0.82561 0.0877,-1.60022 0.25586,-2.33008 2.8e-4,-10e-4 -2.8e-4,-0.003 0,-0.004 0.17237,-0.71088 0.43071,-1.31244 0.76758,-1.82617 0.32679,-0.49263 0.72054,-0.85418 1.23437,-1.13086 l 0.006,-0.002 c 0.48622,-0.26521 1.10548,-0.42188 1.91992,-0.42188 0.6855,0 1.26086,0.13721 1.79102,0.40625 0.52533,0.26659 0.91666,0.61909 1.23828,1.11328 0.3044,0.46776 0.48836,1.03128 0.53125,1.77735 l 1.25781,1.1875 h 1.83399 l 1.25781,-1.3125 c -0.0611,-1.44077 -0.44585,-2.76769 -1.17578,-3.88867 -0.71043,-1.09101 -1.68036,-1.96035 -2.84375,-2.55469 -1.16942,-0.59742 -2.48679,-0.88867 -3.89063,-0.88867 z m 25.33594,0 c -1.15161,0 -2.25096,0.22809 -3.24609,0.69336 -0.45446,0.21247 -0.7891,0.59644 -1.19141,0.88867 v -0.0312 L 794.75,257.94922 h -1.82031 l -1.25782,1.25781 v 17.26367 l 1.25782,1.25782 h 1.90039 l 1.25781,-1.25782 v -11.52734 c 0.19765,-0.52556 0.4366,-1.02985 0.77734,-1.49805 0.36891,-0.50304 0.80413,-0.89454 1.33789,-1.20312 l 0.006,-0.002 c 0.48263,-0.28215 1.04404,-0.43554 1.77344,-0.43554 0.68446,0 1.20965,0.11842 1.61524,0.31054 0.3384,0.1603 0.58246,0.3924 0.81054,0.86329 l 0.004,0.008 c 0.20047,0.40741 0.36523,1.15522 0.36523,2.21875 v 11.26562 l 1.25782,1.25782 h 1.91406 l 1.25976,-1.25782 v -11.24804 c 0,-1.22782 -0.13551,-2.31665 -0.4414,-3.27735 -0.28821,-0.94837 -0.73781,-1.78377 -1.36914,-2.44726 -0.60717,-0.65876 -1.37202,-1.15412 -2.23047,-1.44922 -0.83512,-0.28708 -1.74713,-0.41992 -2.72266,-0.41992 z m -14.63086,0.32031 -1.25781,1.25781 v 17.26367 l 1.25781,1.25782 h 1.91407 l 1.25976,-1.25782 v -17.26367 l -1.25976,-1.25781 z m 25.30469,0 -1.25781,1.25781 v 17.26367 l 1.25781,1.25782 h 1.91602 l 1.25781,-1.25782 v -17.26367 l -1.25781,-1.25781 z m -189.54297,1.74805 0.004,0.01 c -8e-4,-0.002 -0.003,-0.004 -0.004,-0.006 -4.1e-4,-0.001 4.1e-4,-0.003 0,-0.004 z m -129.74023,0.13085 c -0.002,7.8e-4 -0.002,0.003 -0.004,0.004 -10e-4,5.2e-4 -0.003,-5.2e-4 -0.004,0 z m 138.77929,0 c -0.002,7.8e-4 -0.002,0.003 -0.004,0.004 -10e-4,5.2e-4 -0.003,-5.2e-4 -0.004,0 z m -115.29101,0.0547 0.0215,0.01 c -0.003,-0.002 -0.008,-3e-4 -0.0117,-0.002 -0.004,-0.002 -0.006,-0.006 -0.01,-0.008 z m 39.27734,0.002 c -0.002,7.9e-4 -0.002,0.003 -0.004,0.004 -0.001,5.3e-4 -0.003,-5.3e-4 -0.004,0 z m -36.8789,0.0684 0.008,0.01 c -9.7e-4,-10e-4 -0.003,-8.7e-4 -0.004,-0.002 -0.002,-0.002 -0.002,-0.006 -0.004,-0.008 z m -52.6543,0.0957 c -0.003,10e-4 -0.005,0.004 -0.008,0.006 -0.002,0.001 -0.005,7.8e-4 -0.008,0.002 z m 126,0 c -0.003,10e-4 -0.005,0.004 -0.008,0.006 -0.002,0.001 -0.005,7.8e-4 -0.008,0.002 z m 92.18164,0.26562 0.008,0.006 c -0.002,-10e-4 -0.004,-7.3e-4 -0.006,-0.002 -10e-4,-8.6e-4 -7.8e-4,-0.003 -0.002,-0.004 z m 42.08984,0 0.008,0.006 c -0.002,-10e-4 -0.004,-7.3e-4 -0.006,-0.002 -0.001,-8.6e-4 -7.9e-4,-0.003 -0.002,-0.004 z m -136.98437,0.19141 c -10e-4,0.002 -5.4e-4,0.006 -0.002,0.008 -1.4e-4,2.1e-4 -0.002,-2e-4 -0.002,0 z m -110.22266,1.2832 c 0.87932,0 1.47604,0.20007 1.94336,0.54883 l 0.008,0.006 c 0.54588,0.40138 0.93442,0.89094 1.21485,1.55078 l 0.008,0.0176 c 0.15677,0.35384 0.16924,0.76872 0.25,1.15234 h -7.27734 c 0.22618,-0.71565 0.51596,-1.3127 0.8789,-1.78906 l 0.002,-0.002 c 0.38574,-0.50251 0.81216,-0.85722 1.30859,-1.10938 0.48556,-0.24663 1.01937,-0.375 1.66406,-0.375 z m 52.87696,0 c 0.76442,0 1.37549,0.14984 1.90039,0.42774 0.56297,0.29804 1.01455,0.68835 1.39648,1.20312 l 0.008,0.01 c 0.40419,0.53317 0.70513,1.13755 0.91016,1.84179 l 0.006,0.0137 c 0.21751,0.71595 0.32812,1.47719 0.32812,2.29882 v 0.50977 c 0,0.83356 -0.1117,1.60607 -0.33007,2.33398 l -0.004,0.0117 c -0.20596,0.70745 -0.50495,1.31382 -0.90039,1.84766 -0.38044,0.50321 -0.83158,0.8882 -1.39649,1.1875 -4.5e-4,2.4e-4 -10e-4,-2.4e-4 -0.002,0 -0.51123,0.26598 -1.11801,0.41211 -1.88476,0.41211 -0.76529,0 -1.37917,-0.14745 -1.9043,-0.41602 -0.56421,-0.29955 -1.02267,-0.68756 -1.41406,-1.19336 -0.39314,-0.53268 -0.69891,-1.13948 -0.91407,-1.84375 -0.20866,-0.72916 -0.3164,-1.50508 -0.3164,-2.33984 v -0.50977 c 0,-0.82356 0.10628,-1.58694 0.31445,-2.30468 0.21615,-0.70917 0.52351,-1.31806 0.91992,-1.85352 0.39552,-0.52016 0.84964,-0.91373 1.40235,-1.21094 h 0.002 c 0.52599,-0.27738 1.12948,-0.42578 1.87891,-0.42578 z m 44.40234,0 c 0.76443,0 1.37548,0.14985 1.90039,0.42774 0.56298,0.29805 1.01456,0.68835 1.39648,1.20312 l 0.008,0.01 c 0.40418,0.53317 0.70707,1.13755 0.91211,1.84179 l 0.004,0.0137 c 0.21751,0.71595 0.32813,1.47719 0.32813,2.29882 v 0.50977 c 0,0.83355 -0.10975,1.60802 -0.32813,2.33594 l -0.004,0.01 c -0.20597,0.70745 -0.50495,1.31382 -0.90039,1.84766 -0.38044,0.50322 -0.83354,0.8882 -1.39844,1.1875 -4.6e-4,2.4e-4 -10e-4,-2.4e-4 -0.002,0 -0.51122,0.26598 -1.11605,0.41211 -1.88281,0.41211 -0.76528,0 -1.37917,-0.14745 -1.90429,-0.41602 -0.56422,-0.29955 -1.02462,-0.68756 -1.41602,-1.19336 -0.39314,-0.53268 -0.69891,-1.13948 -0.91406,-1.84375 -0.20867,-0.72916 -0.31641,-1.50509 -0.31641,-2.33984 v -0.50977 c 0,-0.82572 0.10912,-1.59117 0.31836,-2.31054 1.7e-4,-6e-4 -1.7e-4,-0.001 0,-0.002 0.21598,-0.70534 0.52128,-1.3125 0.91602,-1.8457 0.39583,-0.52057 0.85293,-0.91363 1.40625,-1.21094 0.52561,-0.27684 1.12827,-0.42578 1.87695,-0.42578 z m 104.39648,0 c 0.87932,0 1.47603,0.20007 1.94336,0.54883 l 0.006,0.006 c 0.54588,0.40138 0.93442,0.89094 1.21485,1.55078 l 0.008,0.0176 c 0.15677,0.35384 0.16924,0.76873 0.25,1.15234 h -7.27735 c 0.22619,-0.71566 0.51792,-1.31269 0.88086,-1.78906 l 0.002,-0.002 c 0.38574,-0.50251 0.81216,-0.85722 1.30859,-1.10938 0.48556,-0.24662 1.01937,-0.375 1.66406,-0.375 z m 42.08985,0 c 0.87932,0 1.47602,0.20007 1.94336,0.54883 l 0.008,0.006 c 0.54588,0.40138 0.93245,0.89093 1.21289,1.55078 l 0.008,0.0176 c 0.15674,0.35378 0.16925,0.7688 0.25,1.15234 h -7.27734 c 0.22617,-0.71566 0.51791,-1.3127 0.88086,-1.78906 l 0.002,-0.002 c 0.38575,-0.50251 0.81216,-0.85722 1.30859,-1.10938 0.48555,-0.24662 1.01937,-0.375 1.66407,-0.375 z m 17.19922,0 c 0.76442,0 1.37549,0.14985 1.90039,0.42774 0.56299,0.29805 1.01455,0.68835 1.39648,1.20312 l 0.008,0.01 c 0.40418,0.53318 0.70708,1.13754 0.91211,1.84179 l 0.004,0.0137 c 0.21751,0.71595 0.32812,1.47719 0.32812,2.29882 v 0.50977 c 0,0.83355 -0.1117,1.60802 -0.33007,2.33594 l -0.002,0.01 c -0.20596,0.70745 -0.5069,1.31382 -0.90234,1.84766 -0.38044,0.50322 -0.83158,0.8882 -1.39649,1.1875 -4.5e-4,2.4e-4 -10e-4,-2.4e-4 -0.002,0 -0.51123,0.26599 -1.11801,0.41211 -1.88476,0.41211 -0.76679,0 -1.38046,-0.14645 -1.90625,-0.41602 -0.5636,-0.29945 -1.02104,-0.68797 -1.41211,-1.19336 -0.39314,-0.53269 -0.69891,-1.13947 -0.91407,-1.84375 -0.20865,-0.72916 -0.3164,-1.50509 -0.3164,-2.33984 v -0.50977 c 0,-0.82357 0.10629,-1.58694 0.31445,-2.30468 0.21615,-0.70918 0.52352,-1.31806 0.91992,-1.85352 0.39584,-0.52057 0.85294,-0.91363 1.40625,-1.21094 0.52562,-0.27684 1.12827,-0.42578 1.87696,-0.42578 z m -226.62891,0.0332 c 0.77331,0 1.35514,0.12998 1.78125,0.33593 l 0.0234,0.0117 c 0.49863,0.22888 0.86499,0.50917 1.15234,0.85547 l 0.0176,0.0234 c 0.31254,0.35942 0.54149,0.74996 0.72851,1.16601 v 7.32032 c -0.0944,0.18814 -0.13454,0.4073 -0.24804,0.58593 -0.33621,0.51878 -0.76827,0.92578 -1.34766,1.25782 -0.51475,0.28524 -1.20535,0.46093 -2.13867,0.46093 -0.6866,0 -1.2075,-0.13594 -1.63477,-0.36914 -0.45865,-0.26133 -0.82576,-0.6032 -1.13671,-1.08008 -0.32762,-0.51333 -0.58377,-1.12912 -0.75782,-1.87109 -0.17738,-0.75621 -0.26953,-1.59078 -0.26953,-2.50586 v -0.33398 c 0,-0.9266 0.0924,-1.7664 0.26953,-2.52149 0.17416,-0.74245 0.42921,-1.35203 0.75391,-1.85156 l 0.006,-0.008 c 0.31367,-0.49063 0.68071,-0.83571 1.13867,-1.09571 0.43846,-0.24325 0.96634,-0.38085 1.66211,-0.38085 z m 45.00977,0 c 0.711,0 1.24045,0.13996 1.6621,0.3789 l 0.008,0.004 c 0.46889,0.26135 0.83489,0.60638 1.14648,1.09375 l 0.0137,0.0215 c 0.3315,0.49725 0.59063,1.10022 0.76368,1.83789 l 0.004,0.0137 c 0.18529,0.75043 0.28125,1.58563 0.28125,2.50782 v 0.33398 c 0,0.91062 -0.0967,1.7451 -0.2832,2.50977 l -0.002,0.0117 c -0.17331,0.7388 -0.43402,1.35162 -0.76954,1.86328 l -0.002,0.004 c -0.31343,0.4822 -0.6854,0.83362 -1.15234,1.10743 -0.42318,0.2383 -0.94372,0.37695 -1.63867,0.37695 -0.92457,0 -1.61333,-0.17455 -2.13086,-0.46289 -0.58239,-0.32447 -1.01254,-0.72372 -1.34766,-1.23438 -0.11007,-0.16772 -0.14833,-0.37426 -0.24023,-0.55078 v -7.45117 c 0.18692,-0.41029 0.40786,-0.79753 0.70703,-1.15039 0.30395,-0.35681 0.67769,-0.6423 1.16797,-0.87109 l 0.008,-0.004 c 0.44171,-0.21 1.03137,-0.33984 1.80469,-0.33984 z m 4.92382,0.10156 0.0137,0.0195 c -0.002,-0.004 -0.007,-0.004 -0.01,-0.008 -0.002,-0.003 -0.002,-0.008 -0.004,-0.0117 z m -78.79492,0.96875 0.008,0.0176 c -10e-4,-0.003 -0.005,-0.005 -0.006,-0.008 -10e-4,-0.003 -6.1e-4,-0.007 -0.002,-0.01 z m 9.42578,4.03711 c -8.8e-4,1.9e-4 -0.001,0.002 -0.002,0.002 -0.003,6.8e-4 -0.007,-6.9e-4 -0.01,0 z m 138.7793,0 c -8.8e-4,1.9e-4 -10e-4,0.002 -0.002,0.002 -0.003,6.8e-4 -0.007,-6.9e-4 -0.01,0 z m -135.87305,2.21484 h 1.9961 v 2.04102 c -0.1437,0.3192 -0.23635,0.64846 -0.49024,0.95312 -0.40933,0.4912 -0.92737,0.89242 -1.60156,1.2168 -9.2e-4,4.4e-4 -10e-4,0.002 -0.002,0.002 -0.61633,0.29095 -1.34995,0.45117 -2.24805,0.45117 -0.64115,0 -1.12499,-0.11764 -1.50391,-0.31054 -0.40561,-0.2065 -0.65161,-0.44033 -0.83398,-0.74219 -0.19245,-0.31854 -0.28125,-0.63383 -0.28125,-1.04102 0,-0.39838 0.0826,-0.68391 0.23828,-0.94922 0.17638,-0.29319 0.42521,-0.55015 0.81055,-0.78906 0.38432,-0.23828 0.89859,-0.44361 1.55664,-0.58984 l 0.0117,-0.004 c 0.66275,-0.15434 1.44658,-0.23828 2.34765,-0.23828 z m 138.7793,0 h 1.99609 v 2.04102 c -0.14369,0.31919 -0.23634,0.64846 -0.49023,0.95312 -0.40989,0.49187 -0.92995,0.89415 -1.60547,1.21875 -0.61601,0.29049 -1.34875,0.45117 -2.24609,0.45117 -0.64116,0 -1.12499,-0.11764 -1.50391,-0.31054 -0.40562,-0.20651 -0.6516,-0.44032 -0.83398,-0.74219 -0.19246,-0.31854 -0.28125,-0.63384 -0.28125,-1.04102 0,-0.39839 0.0826,-0.68392 0.23828,-0.94922 0.17638,-0.29319 0.4252,-0.55014 0.81054,-0.78906 0.38434,-0.23828 0.89859,-0.4436 1.55664,-0.58984 l 0.0117,-0.004 c 0.66277,-0.15434 1.44659,-0.23828 2.34766,-0.23828 z m -179.08984,4.94922 -0.008,0.0117 c 0.002,-0.002 3.1e-4,-0.006 0.002,-0.008 0.001,-0.002 0.004,-0.002 0.006,-0.004 z m 324.49804,0 -0.008,0.0117 c 0.002,-0.002 3.1e-4,-0.006 0.002,-0.008 10e-4,-0.002 0.004,-0.002 0.006,-0.004 z m -279.52148,0.16797 -0.01,0.0137 c 0.001,-0.002 7.6e-4,-0.004 0.002,-0.006 0.002,-0.003 0.006,-0.005 0.008,-0.008 z m 138.77734,0 -0.008,0.0137 c 0.002,-0.003 0.002,-0.007 0.004,-0.01 9.6e-4,-0.002 0.003,-0.002 0.004,-0.004 z"
     id="path3" />
  <path
     style="font-size:40px;line-height:1.25;font-family:'Arial Black';-inkscape-font-specification:'Arial Black, ';text-align:center;baseline-shift:baseline;text-anchor:middle;white-space:pre;display:inline;overflow:visible;vector-effect:none;fill:#ffffff;stroke-width:2.87602;stroke-linecap:round;stroke-linejoin:round;enable-background:accumulate;stop-color:#000000"
     d="m 848.2459,149.90157 c -10.02039,0 -18.36109,1.92935 -24.67091,6.44296 a 5.0385033,5.0385033 0 0 0 -0.0115,0.0115 c -6.07822,4.37987 -10.23232,10.85682 -12.26806,18.66045 a 5.0385033,5.0385033 0 0 0 0.0173,0.0955 5.0385033,5.0385033 0 0 0 -1.65708,-1.11221 h -28.14236 a 5.0385033,5.0385033 0 0 0 -3.81409,1.74695 l -8.22365,9.52122 v -28.92339 a 5.0385033,5.0385033 0 0 0 -5.03865,-5.03865 h -23.36769 a 5.0385033,5.0385033 0 0 0 -5.03865,5.03865 v 82.34865 a 5.0385033,5.0385033 0 0 0 5.03865,5.03867 h 23.36769 a 5.0385033,5.0385033 0 0 0 5.03865,-5.03867 v -13.38585 l 2.16266,-2.12334 8.97072,17.77854 a 5.0385033,5.0385033 0 0 0 4.49939,2.76932 h 25.78313 a 5.0385033,5.0385033 0 0 0 4.34771,-7.57766 l -20.64893,-35.36612 18.58743,-18.14366 a 5.0385033,5.0385033 0 0 0 0.51115,-2.46596 5.0385033,5.0385033 0 0 0 1.5953,1.06727 l 21.62635,3.8759 -4.15113,-4.96002 a 5.0385033,5.0385033 0 0 0 6.29691,3.713 5.0385033,5.0385033 0 0 0 -1.3425,2.5502 l -1.17963,16.34617 a 5.0385033,5.0385033 0 0 0 6.40927,5.20716 c 2.90191,-0.8291 5.07506,-1.15153 6.0329,-1.15153 2.32543,0 3.32482,0.49844 4.28596,1.53352 a 5.0385033,5.0385033 0 0 0 0.0336,0.0336 c 0.93505,0.98798 1.59527,2.46789 1.59527,5.41501 0,2.82118 -0.64621,4.36434 -1.7638,5.58351 a 5.0385033,5.0385033 0 0 0 -0.0336,0.0336 c -1.17394,1.30439 -2.05075,1.70203 -3.89273,1.70203 -1.88394,0 -2.82472,-0.42346 -3.78042,-1.29196 -0.61794,-0.60986 -1.88946,-2.83271 -2.67942,-6.88112 a 5.0385033,5.0385033 0 0 0 -5.60597,-4.02756 l -22.86215,3.03332 a 5.0385033,5.0385033 0 0 0 -4.17363,6.40364 c 1.64811,5.64468 4.05888,10.55354 7.3305,14.57672 a 5.0385033,5.0385033 0 0 0 0.0394,0.0449 c 3.34323,4.01185 7.64482,7.09259 12.6388,9.13362 a 5.0385033,5.0385033 0 0 0 0.0115,0.006 c 5.27796,2.1385 11.7592,3.01085 19.64347,3.01085 8.19299,0 15.14957,-1.22449 20.84557,-4.07251 a 5.0385033,5.0385033 0 0 0 0.0288,-0.0115 c 5.5022,-2.79475 9.94189,-6.93616 12.93089,-12.15569 a 5.0385033,5.0385033 0 0 0 0.0115,-0.0173 c 2.89524,-5.09905 4.42077,-10.63442 4.42077,-16.30683 0,-4.48384 -0.92209,-8.66673 -2.9378,-12.26803 -1.88665,-3.47236 -4.64383,-6.36711 -8.02141,-8.47081 1.04063,-1.06461 2.14598,-2.08592 2.96026,-3.29169 2.48512,-3.67987 3.78603,-8.0047 3.78603,-12.48149 0,-7.39351 -3.24553,-14.16562 -8.99882,-18.97502 -6.21494,-5.19531 -15.16769,-7.18443 -26.54141,-7.18443 z m -418.31545,1.40431 a 5.0385033,5.0385033 0 0 0 -4.9151,6.13401 l 18.3122,82.34865 a 5.0385033,5.0385033 0 0 0 4.91509,3.94331 h 24.94051 a 5.0385033,5.0385033 0 0 0 4.85329,-3.69054 l 9.53807,-34.37746 9.57176,34.3831 a 5.0385033,5.0385033 0 0 0 4.85329,3.6849 h 24.94053 a 5.0385033,5.0385033 0 0 0 4.92068,-3.95453 l 18.14368,-82.34868 a 5.0385033,5.0385033 0 0 0 -4.9207,-6.12276 H 521.042 a 5.0385033,5.0385033 0 0 0 -4.9488,4.10057 l -4.68476,24.7439 -6.97099,-25.15396 a 5.0385033,5.0385033 0 0 0 -4.85329,-3.69051 h -24.09795 a 5.0385033,5.0385033 0 0 0 -4.8589,3.69612 l -6.92043,25.08658 -4.67354,-24.68213 a 5.0385033,5.0385033 0 0 0 -4.94877,-4.10057 z m 125.82605,0 a 5.0385033,5.0385033 0 0 0 -5.03868,5.03865 v 82.34865 a 5.0385033,5.0385033 0 0 0 5.03868,5.03867 h 22.86215 a 5.0385033,5.0385033 0 0 0 5.03865,-5.03867 v -28.64791 c 0,-4.89723 1.06913,-7.64533 1.43801,-8.09442 0.88156,-1.07319 1.34762,-1.30319 2.84793,-1.30319 1.45636,0 1.67304,0.21053 2.06153,0.6516 a 5.0385033,5.0385033 0 0 0 0.0394,0.0449 c 0.0201,0.023 0.78081,1.42087 0.78081,4.54435 v 32.80465 a 5.0385033,5.0385033 0 0 0 5.03865,5.03868 h 22.97449 a 5.0385033,5.0385033 0 0 0 5.03865,-5.03868 v -37.91632 c 0,-8.59293 -1.99004,-15.83398 -6.77436,-20.87364 -4.56057,-4.84285 -11.08425,-7.25187 -18.3178,-7.25187 -4.74901,0 -9.11564,0.78289 -12.97021,2.52213 -0.76226,0.34395 -1.41434,1.17357 -2.15702,1.59531 v -20.42426 a 5.0385033,5.0385033 0 0 0 -5.03865,-5.03865 z m 77.57399,0 a 5.0385033,5.0385033 0 0 0 -5.03865,5.03865 v 15.55975 a 5.0385033,5.0385033 0 0 0 3.56696,3.56693 5.0385033,5.0385033 0 0 0 -3.56696,3.56693 v 59.65504 a 5.0385033,5.0385033 0 0 0 5.03865,5.03867 h 22.86215 a 5.0385033,5.0385033 0 0 0 5.03868,-5.03867 v -59.65504 a 5.0385033,5.0385033 0 0 0 -3.56696,-3.56693 5.0385033,5.0385033 0 0 0 3.56696,-3.56693 v -15.55975 a 5.0385033,5.0385033 0 0 0 -5.03868,-5.03865 z m 263.0551,0 a 5.0385033,5.0385033 0 0 0 -5.03868,5.03865 v 82.34865 a 5.0385033,5.0385033 0 0 0 5.03868,5.03867 h 37.80399 c 5.08639,0 10.56573,-0.83456 16.47533,-2.42103 4.93549,-1.31544 9.49798,-3.95272 13.55441,-7.66754 a 5.0385033,5.0385033 0 0 0 0.0173,-0.0173 c 4.11047,-3.80756 7.31022,-8.52416 9.54368,-13.9532 2.43473,-5.86142 3.42092,-13.24901 3.42092,-22.43523 0,-6.02027 -0.726,-11.78879 -2.19634,-17.26175 -1.50847,-5.61484 -3.9908,-10.67649 -7.43161,-15.0205 -3.50222,-4.42157 -8.02126,-7.85876 -13.31286,-10.18406 -5.49574,-2.43251 -12.16247,-3.46581 -20.07036,-3.46581 z m -48.13969,8.67299 c 10.12153,0 16.70981,2.01785 20.08161,4.83644 3.83345,3.20452 5.3813,6.50597 5.3813,11.24571 0,2.63835 -0.64639,4.75462 -2.0559,6.84178 -1.39545,2.06636 -3.66912,4.10765 -7.08333,5.9936 a 5.0385033,5.0385033 0 0 0 1.23016,9.30213 c 2.87795,0.71104 4.89076,1.53925 5.84756,2.13455 a 5.0385033,5.0385033 0 0 0 0.0173,0.0115 c 2.03355,1.25354 3.46978,2.77234 4.5612,4.79148 a 5.0385033,5.0385033 0 0 0 0.0394,0.073 c 1.04477,1.86022 1.65711,4.2195 1.65711,7.36421 0,3.91268 -0.98539,7.58726 -3.10634,11.32434 -9.2e-4,0.002 8.9e-4,0.003 0,0.006 -2.02696,3.53202 -4.81067,6.16148 -8.7348,8.15623 -0.002,0.001 -0.003,0.006 -0.006,0.006 -3.74021,1.86352 -9.16661,2.994 -16.31247,2.994 -7.08856,0 -12.43575,-0.88424 -15.84623,-2.26375 l -0.0115,-0.006 c -3.60211,-1.47423 -6.39967,-3.52193 -8.66739,-6.23514 -1.13505,-1.3991 -1.82515,-3.68398 -2.74122,-5.52173 l 11.68945,-1.55038 c 0.96735,2.97956 2.18601,5.66821 4.28036,7.67878 a 5.0385033,5.0385033 0 0 0 0.073,0.0673 c 2.85106,2.62748 6.72863,3.97702 10.66151,3.97702 4.29002,0 8.49362,-1.8454 11.36366,-5.02182 2.99221,-3.27318 4.40391,-7.7135 4.40391,-12.37476 0,-4.68052 -1.32386,-9.10865 -4.34213,-12.31297 -2.9332,-3.14916 -7.24189,-4.74657 -11.65014,-4.74657 -0.57754,0 -1.33114,0.28387 -1.92671,0.33705 l 0.38196,-5.29146 c 3.43639,-0.36344 6.75829,-1.57278 9.23475,-3.94892 2.84651,-2.69886 4.5949,-6.52935 4.5949,-10.43681 0,-3.51162 -1.2318,-7.07933 -3.72422,-9.57178 -2.53697,-2.53694 -6.15932,-3.72422 -9.74029,-3.72422 -3.71306,0 -7.42744,1.31906 -10.07172,3.89276 -1.80686,1.73415 -2.86043,3.94438 -3.6512,6.36993 l -10.84686,-1.94356 c 1.57643,-3.18741 3.49368,-5.93048 6.22389,-7.89782 3.95134,-2.8225 10.09806,-4.55559 18.79527,-4.55559 z m -412.03539,1.40431 h 13.70043 l 7.93155,41.90459 a 5.0385033,5.0385033 0 0 0 9.80768,0.40442 l 11.67263,-42.30901 h 16.43041 l 11.72877,42.30901 a 5.0385033,5.0385033 0 0 0 9.80206,-0.40442 l 7.93156,-41.90459 h 13.59931 l -15.92486,72.27135 H 505.8249 l -13.40834,-48.16216 a 5.0385033,5.0385033 0 0 0 -9.70658,0.006 l -13.35778,48.15655 h -17.07079 z m 124.58464,0 h 12.78482 v 25.2944 a 5.0385033,5.0385033 0 0 0 8.66178,3.49954 c 2.78318,-2.88379 5.40031,-4.77362 7.7181,-5.81946 2.28695,-1.03192 5.18524,-1.62898 8.82467,-1.62898 5.19462,0 8.43869,1.36818 10.99291,4.08373 a 5.0385033,5.0385033 0 0 0 0.0173,0.023 c 2.39953,2.52449 4.00509,6.88664 4.00509,13.94199 v 32.87767 H 600.9026 v -27.766 c 0,-4.35392 -0.62824,-8.22425 -3.35911,-11.26817 -2.38316,-2.69044 -6.04747,-4.05002 -9.59985,-4.05002 -4.04199,0 -8.06972,1.86711 -10.63341,4.98812 -3.07634,3.7451 -3.72986,8.5241 -3.72986,14.48682 v 23.60925 h -12.78482 z m 77.57402,0 h 12.78482 v 5.48242 h -12.78482 z m 107.73853,0 h 13.2904 v 37.42762 a 5.0385033,5.0385033 0 0 0 8.85274,3.29173 l 15.56536,-18.02571 h 13.46451 l -12.5489,12.25117 a 5.0385033,5.0385033 0 0 0 -0.82573,6.14526 l 18.21107,31.18128 H 788.2089 l -10.67836,-21.16012 a 5.0385033,5.0385033 0 0 0 -8.02704,-1.33128 l -8.59437,8.42583 a 5.0385033,5.0385033 0 0 0 -1.51103,3.60066 v 10.46491 h -13.2904 z m 155.31654,0 h 32.76534 c 6.9965,0 12.35065,0.98895 15.99227,2.60079 a 5.0385033,5.0385033 0 0 0 0.0115,0.006 c 3.91565,1.71908 6.99498,4.08404 9.4819,7.22376 2.55092,3.22052 4.41257,6.95923 5.60037,11.38052 1.22593,4.56318 1.84807,9.42993 1.84807,14.64414 0,8.41444 -1.03605,14.69547 -2.64571,18.57057 a 5.0385033,5.0385033 0 0 0 -0.0115,0.0173 c -1.73396,4.22039 -4.07084,7.62017 -7.06648,10.39748 -3.05192,2.79239 -6.12162,4.49658 -9.34147,5.35323 a 5.0385033,5.0385033 0 0 0 -0.0115,0.006 c -5.24998,1.40936 -9.88165,2.07275 -13.85772,2.07275 h -32.76534 z m 20.40741,8.5719 a 5.0385033,5.0385033 0 0 0 -5.03865,5.03865 v 44.99407 a 5.0385033,5.0385033 0 0 0 5.03865,5.03865 h 6.23513 c 5.68429,0 9.97428,-0.39818 13.66111,-2.30306 a 5.0385033,5.0385033 0 0 0 0.0561,-0.0336 c 3.39793,-1.81224 5.92095,-4.92651 7.5271,-8.61122 a 5.0385033,5.0385033 0 0 0 0.0115,-0.023 c 1.81032,-4.2063 2.31992,-9.39715 2.31992,-16.31246 0,-9.27319 -1.19191,-16.34335 -5.53298,-21.2556 -4.1239,-4.66658 -10.51874,-6.53286 -17.9302,-6.53286 z m -223.56592,2.69627 c -7.09052,0 -12.95076,0.70794 -17.7954,2.42665 -0.003,0.001 -0.009,-0.001 -0.0115,0 -4.71651,1.63832 -8.7522,4.29727 -11.67821,7.94277 -2.99328,3.72934 -4.53874,8.41079 -4.53874,13.31847 0,4.57463 1.43189,8.9876 4.14553,12.62192 a 5.0385033,5.0385033 0 0 0 0.0288,0.0336 c 2.40387,3.16294 5.52369,5.53681 9.04374,7.11704 l -11.17827,1.05041 a 5.0385033,5.0385033 0 0 0 -4.43762,6.13965 c 1.5526,6.78713 5.35257,12.51968 10.96485,16.30683 a 5.0385033,5.0385033 0 0 0 0.0172,0.0115 c 6.15745,4.12152 14.7381,5.51613 26.1145,5.51613 8.13012,0 14.81512,-0.95038 20.2389,-3.27487 a 5.0385033,5.0385033 0 0 0 0.023,-0.006 c 5.16982,-2.24028 9.36931,-5.45821 12.07142,-9.72344 2.52756,-3.9331 3.93768,-8.30144 3.93768,-12.76235 0,-4.3774 -1.35521,-8.62457 -3.87027,-12.23996 -2.33516,-3.40728 -5.73341,-5.95463 -9.67851,-7.78548 l 6.98224,-0.6853 a 5.0385033,5.0385033 0 0 0 4.20731,-6.82495 c -1.68584,-4.3832 -3.90498,-8.10372 -6.8081,-11.00976 -2.85273,-2.8932 -6.44439,-5.00604 -10.50422,-6.30255 -0.001,-4.3e-4 -0.003,4.6e-4 -0.006,0 -4.35476,-1.40235 -9.89827,-1.87054 -17.26739,-1.87054 z m 149.53079,1.53914 c 1.66174,0 2.15871,0.31066 2.61761,0.76956 0.50342,0.50342 0.76957,0.94265 0.76957,2.44911 0,1.32587 -0.2692,2.01457 -1.45487,3.1344 a 5.0385033,5.0385033 0 0 0 -0.0337,0.0337 c -1.07215,1.03172 -2.05169,1.45487 -3.97699,1.45487 -0.26948,0 -1.10172,-0.057 -2.24129,-0.22462 a 5.0385033,5.0385033 0 0 0 -2.78051,0.75832 5.0385033,5.0385033 0 0 0 2.084,-1.67393 c 0.5144,-3.50458 1.56318,-5.28113 1.9267,-5.62849 a 5.0385033,5.0385033 0 0 0 0.0394,-0.0394 c 0.72484,-0.70871 1.38014,-1.03356 3.05016,-1.03356 z m 79.07381,5.84192 h 1.30882 c 5.77028,0 8.81245,1.35426 10.38063,3.1288 1.35107,1.52883 3.00522,6.40467 3.00522,14.58233 0,6.26366 -0.76393,10.61207 -1.49979,12.32422 -3.5e-4,7.5e-4 3.1e-4,0.006 0,0.006 -0.92985,2.12256 -1.91799,3.11786 -2.99961,3.70175 -0.82237,0.41792 -4.06632,1.174 -8.99882,1.174 h -1.19645 z m -228.6046,2.69627 c 6.85886,0 11.79823,0.61886 14.18352,1.38745 a 5.0385033,5.0385033 0 0 0 0.0172,0 c 2.7393,0.87296 4.7866,2.1305 6.4205,3.79164 a 5.0385033,5.0385033 0 0 0 0.0288,0.0288 c 0.32384,0.32387 0.56663,1.08104 0.8819,1.46611 l -10.35256,1.01673 c -0.78907,-1.16045 -1.75904,-2.20254 -2.93783,-3.01085 a 5.0385033,5.0385033 0 0 0 -0.0506,-0.0336 c -2.71114,-1.80741 -5.97664,-2.64571 -9.3134,-2.64571 -3.18543,0 -6.17839,0.45381 -8.75726,2.46035 -0.002,0.002 -0.003,0.003 -0.006,0.006 -2.09532,1.62533 -3.69051,4.49575 -3.69051,7.29118 0,3.18287 2.36355,6.48443 5.03304,7.81919 3.02998,1.51498 6.22622,1.89504 11.43108,2.51652 a 5.0385033,5.0385033 0 0 0 0.0288,0.006 c 7.36026,0.83393 12.71429,2.04974 15.60467,3.24677 2.97878,1.23364 4.90768,2.79299 6.25199,4.75778 a 5.0385033,5.0385033 0 0 0 0.023,0.0394 c 1.44511,2.07223 2.07277,4.06943 2.07277,6.49912 0,2.42302 -0.68273,4.75209 -2.3424,7.3305 a 5.0385033,5.0385033 0 0 0 -0.023,0.0336 c -1.41759,2.24238 -3.76673,4.22422 -7.57766,5.87563 -3.48968,1.49096 -8.96422,2.44911 -16.25066,2.44911 -10.40686,0 -17.35695,-1.71118 -20.49167,-3.80288 -1.93119,-1.30316 -3.37803,-2.8613 -4.52186,-4.69037 l 12.57136,-1.18524 c 1.05752,1.78998 2.30977,3.421 4.02195,4.60052 2.76199,1.90269 6.09711,2.62886 9.59985,2.62886 3.76515,0 7.32541,-0.80822 10.17281,-2.99961 2.25878,-1.69841 3.96578,-4.70612 3.96578,-7.65629 0,-3.40337 -2.44942,-6.8026 -5.29145,-8.28542 a 5.0385033,5.0385033 0 0 0 -0.023,-0.0115 c -2.95724,-1.52337 -5.81851,-1.88385 -11.26257,-2.84231 a 5.0385033,5.0385033 0 0 0 -0.0115,-0.006 c -7.78614,-1.35892 -13.19629,-2.66273 -15.61592,-3.56132 -2.18195,-0.85438 -3.96445,-2.19927 -5.59476,-4.3365 -1.47261,-1.97787 -2.14016,-3.96345 -2.14016,-6.57217 0,-2.95644 0.73888,-5.05312 2.31428,-7.01592 1.6341,-2.03591 3.87685,-3.6013 7.15638,-4.73534 a 5.0385033,5.0385033 0 0 0 0.0394,-0.0173 c 3.1674,-1.12487 8.05014,-1.84244 14.43629,-1.84244 z m -59.89656,1.34814 h 12.78482 v 49.57771 h -12.78482 z m 57.234,36.57943 c 0.14898,0.0259 0.17515,0.0523 0.32579,0.0785 3.78123,0.66572 4.96212,1.06313 6.11716,1.36499 -0.64201,0.16365 -0.80362,0.43253 -1.9267,0.43253 -2.11448,0 -3.27312,-0.43471 -3.88151,-0.85381 -0.1694,-0.11648 -0.42847,-0.78685 -0.63474,-1.02234 z"
     id="path18" />
  <path
     d="m 429.93045,156.34418 h 24.15411 l 8.7067,46.00514 12.69495,-46.00514 h 24.09794 l 12.75111,46.00514 8.70673,-46.00514 h 24.04175 l -18.14365,82.34865 h -24.94054 l -14.43629,-51.84706 -14.38012,51.84706 h -24.9405 z m 125.82605,0 h 22.86214 v 30.33305 q 4.6623,-4.83083 9.26842,-6.90918 4.60616,-2.07839 10.89746,-2.07839 9.32459,0 14.66096,5.67342 5.39255,5.67338 5.39255,17.41343 v 37.91632 h -22.97449 v -32.80465 q 0,-5.61725 -2.07839,-7.92031 -2.07835,-2.35923 -5.84192,-2.35923 -4.15675,0 -6.74068,3.14565 -2.58391,3.14565 -2.58391,11.29064 v 28.6479 H 555.7565 Z m 77.57398,0 h 22.86215 v 15.55972 h -22.86215 z m 0,22.69361 h 22.86215 v 59.65504 h -22.86215 z m 33.42257,43.14036 22.69361,-2.13455 q 1.4043,4.04441 3.93207,5.78575 2.52777,1.74135 6.74068,1.74135 4.60613,0 7.13389,-1.96602 1.96602,-1.46048 1.96602,-3.6512 0,-2.4716 -2.5839,-3.81973 -1.85371,-0.95493 -9.83017,-2.35924 -11.90855,-2.07838 -16.57084,-3.81973 -4.60613,-1.79751 -7.80797,-6.01043 -3.14566,-4.21291 -3.14566,-9.60546 0,-5.89809 3.42653,-10.1672 3.42652,-4.26909 9.43695,-6.34748 6.01043,-2.13455 16.12147,-2.13455 10.67275,0 15.72825,1.62901 5.11168,1.62898 8.48203,5.0555 3.4265,3.42652 5.67339,9.26845 l -21.68252,2.13453 q -0.84259,-2.86478 -2.80861,-4.21292 -2.69627,-1.79751 -6.516,-1.79751 -3.87588,0 -5.67339,1.4043 -1.74135,1.34814 -1.74135,3.31419 0,2.19069 2.2469,3.31415 2.24689,1.12344 9.77399,2.02219 11.40298,1.29197 16.96403,3.59503 5.56108,2.3031 8.48202,6.57218 2.97715,4.26911 2.97715,9.38078 0,5.16785 -3.14565,10.05484 -3.08948,4.887 -9.83017,7.80798 -6.68451,2.86478 -18.25602,2.86478 -16.34614,0 -23.3115,-4.6623 -6.90921,-4.66232 -8.87523,-13.25669 z m 74.316,-65.83397 h 23.36769 v 42.46628 l 17.07639,-19.77267 h 28.14236 l -21.40167,20.89613 22.63747,38.75891 h -25.78313 l -12.07705,-23.92941 -8.59437,8.42583 v 15.50358 h -23.36769 z m 96.72877,23.81708 -21.62635,-3.87591 q 2.69627,-10.33571 10.33571,-15.84059 7.69561,-5.50488 21.73871,-5.50488 16.12147,0 23.31153,6.01043 7.19006,6.01043 7.19006,15.11037 0,5.33635 -2.92098,9.66163 -2.92094,4.32528 -8.81907,7.58327 4.77466,1.17963 7.30243,2.75244 4.10058,2.52776 6.34747,6.68451 2.30306,4.10058 2.30306,9.83016 0,7.19006 -3.76353,13.81841 -3.76357,6.57214 -10.84129,10.16717 -7.07769,3.53887 -18.59303,3.53887 -11.23447,0 -17.75045,-2.64011 -6.45984,-2.6401 -10.67275,-7.69561 -4.15675,-5.11167 -6.40364,-12.80728 l 22.86212,-3.03331 q 1.34813,6.90919 4.15677,9.60546 2.86478,2.6401 7.24623,2.6401 4.60612,0 7.63944,-3.37032 3.08948,-3.37036 3.08948,-8.98758 0,-5.72958 -2.97714,-8.87523 -2.92095,-3.14566 -7.97648,-3.14566 -2.69628,0 -7.41474,1.34814 l 1.1796,-16.34617 q 1.90988,0.28099 2.97715,0.28099 4.49378,0 7.47093,-2.86478 3.03328,-2.86481 3.03328,-6.79685 0,-3.76357 -2.24689,-6.01046 -2.24689,-2.24689 -6.17894,-2.24689 -4.0444,0 -6.57217,2.47159 -2.52777,2.4154 -3.42652,8.5382 z m 58.58777,-23.81708 h 37.80398 q 11.1783,0 18.03132,3.03329 6.90919,3.03331 11.40298,8.70673 4.49378,5.67339 6.516,13.20049 2.02219,7.5271 2.02219,15.95296 0,13.20049 -3.03328,20.50289 -2.97715,7.24622 -8.31352,12.18939 -5.33638,4.887 -11.45915,6.51601 -8.36969,2.24689 -15.16654,2.24689 h -37.80398 z m 25.44605,18.64921 v 44.99404 h 6.23514 q 7.97648,0 11.34683,-1.74135 3.37033,-1.79751 5.28018,-6.17893 1.90988,-4.43762 1.90988,-14.32395 0,-13.08816 -4.26911,-17.91899 -4.26909,-4.83082 -14.15542,-4.83082 z"
     id="text12"
     style="font-size:40px;line-height:1.25;font-family:'Arial Black';-inkscape-font-specification:'Arial Black, ';text-align:center;text-anchor:middle;white-space:pre;stroke-width:2.87602"
     aria-label="Whisk3D" />
  <path
     style="baseline-shift:baseline;display:inline;overflow:visible;vector-effect:none;fill:#ffffff;stroke-width:2.78657;stroke-linecap:round;stroke-linejoin:round;paint-order:markers stroke fill;enable-background:accumulate;stop-color:#000000"
     d="m 255.95638,34.780549 -79.23234,0.0054 c -3.55938,-0.0014 -6.44514,2.88457 -6.44395,6.443957 v 10.389785 c 0,10.361004 -8.26126,18.631327 -18.62434,18.624324 h -0.005 c -4.4148,0 -8.65314,-1.525403 -11.94635,-4.217962 l -2.94985,-2.944396 -5.62757,-5.633021 c -2.51514,-2.512533 -6.59021,-2.512533 -9.10536,0 L 65.974311,113.49607 c -2.516149,2.51575 -2.516149,6.59501 0,9.11079 l 7.347413,7.34197 c 7.32498,7.33659 7.321357,19.01018 0,26.34728 -3.140887,3.11043 -7.204928,5.03014 -11.412988,5.45885 h -4.190824 -7.956971 c -3.559394,-0.001 -6.445139,2.88456 -6.443956,6.44396 v 79.26498 c 0.002,3.55727 2.886691,6.43969 6.443956,6.43851 h 10.384344 c 10.368351,0 18.630441,8.26308 18.629772,18.63521 0,4.40583 -1.526485,8.64106 -4.207073,11.92459 l -8.593754,8.59378 c -2.516143,2.51577 -2.516143,6.59501 0,9.11078 l 56.04717,56.04717 c 2.51513,2.51253 6.5902,2.51253 9.10535,0 l 7.34741,-7.34742 0.005,-0.005 c 7.3289,-7.31292 19.006,-7.30306 26.33095,0 3.17115,3.19415 5.08942,7.3487 5.4643,11.67965 v 3.91319 7.9624 c 0.002,3.55515 2.88337,6.43674 6.43852,6.43855 h 79.26498 c 3.55515,-0.002 6.4367,-2.8834 6.43852,-6.43855 v -10.4442 c 0.0675,-10.35558 8.2895,-18.5699 18.63522,-18.5699 4.3989,0 8.62913,1.5222 11.92457,4.20163 l 8.58832,8.59375 c 2.51435,2.51756 6.59361,2.51983 9.11079,0.005 l 56.04721,-56.04714 c 2.51613,-2.51577 2.51613,-6.59502 0,-9.11079 l -7.35289,-7.34742 c -0.0153,-0.005 -0.0289,-0.0102 -0.0435,-0.0153 -0.008,-0.0153 -0.0153,-0.0324 -0.023,-0.0488 -7.254,-7.32785 -7.23841,-18.95584 0.0544,-26.26566 3.20017,-3.17846 7.36274,-5.09953 11.69056,-5.46972 h 3.92404 7.96246 c 3.55939,0.001 6.4451,-2.8846 6.44393,-6.44396 v -79.26611 c -0.002,-3.55724 -2.88669,-6.43969 -6.44393,-6.43851 h -10.38435 c -10.36443,0 -18.63043,-8.2691 -18.62977,-18.62977 v -0.005 c 0,-4.4791 1.59344,-8.77465 4.39753,-12.11508 l 2.77025,-2.77024 h 0.005 l 5.62761,-5.63302 c 2.51253,-2.51514 2.51253,-6.59022 0,-9.10538 L 310.67581,57.442938 c -2.51575,-2.516136 -6.59502,-2.516136 -9.11076,0 l -5.45886,5.458842 h 2.57976 c -1.69898,0.002 -3.32845,0.674743 -4.53364,1.872248 -7.33227,7.27834 -19.00314,7.253919 -26.30918,0.0054 -0.002,-0.002 -0.003,-0.0027 -0.005,-0.0054 -3.09074,-3.125422 -4.99756,-7.169767 -5.43704,-11.353135 V 41.21876 c -0.002,-3.557264 -2.88669,-6.439684 -6.44395,-6.438508 z m -6.43851,12.882466 v 6.275218 c 5.5e-4,0.210761 0.0115,0.421548 0.0327,0.631342 0.71643,7.288277 3.99549,14.09985 9.1761,19.31554 0.0107,0.01021 0.0217,0.02041 0.0326,0.03271 12.19773,12.111518 32.07345,12.145497 44.34572,0.07613 0.0769,-0.0294 0.15302,-0.06029 0.22865,-0.09248 l 2.79198,-2.792015 46.93095,46.93637 -1.07217,1.07217 -3.09679,3.09681 c -0.12697,0.12543 -0.24857,0.25623 -0.36465,0.39186 -4.82061,5.69439 -7.48349,12.96253 -7.48349,20.50745 -10e-4,17.32473 14.18242,31.51767 31.51223,31.51767 h 3.94584 v 66.38254 h -1.52392 -4.35946 c -0.17244,-0.001 -0.34498,0.005 -0.51704,0.0179 -7.46537,0.60317 -14.47764,3.89007 -19.81624,9.19244 -0.005,0.005 -0.0102,0.0102 -0.0153,0.0179 -12.21409,12.21676 -12.25497,32.19028 -0.1142,44.4546 l -0.31566,-0.76196 c 0.37697,0.51694 0.78662,0.81377 1.20283,1.18103 l -0.77285,-0.31024 2.79199,2.79748 -46.93093,46.93635 -4.40299,-4.40299 c -0.14562,-0.14689 -0.29816,-0.28679 -0.45719,-0.41907 -5.66084,-4.66173 -12.82053,-7.19506 -20.21354,-7.19503 -17.28723,0 -31.40514,14.11296 -31.51768,31.37073 -5e-5,0.0153 -5e-5,0.0289 0,0.0435 v 4.03837 h -66.37828 v -1.51848 -4.35947 c -1.7e-4,-0.17448 -0.007,-0.34866 -0.0217,-0.52245 -0.60992,-7.45201 -3.88397,-14.46543 -9.19243,-19.80564 -0.005,-0.005 -0.011,-0.0102 -0.0166,-0.0153 -12.24986,-12.22911 -32.29548,-12.24025 -44.55254,0 h -0.005 l -2.79746,2.79746 -46.936373,-46.93639 4.408446,-4.40843 c 0.143114,-0.14409 0.279327,-0.29479 0.408192,-0.45172 4.672185,-5.65808 7.205908,-12.81948 7.205908,-20.21357 0.0014,-17.33234 -14.184259,-31.51885 -31.512002,-31.51885 h -3.945679 v -66.38255 h 1.518462 4.68058 c 0.203501,5.8e-4 0.406914,-0.008 0.609557,-0.0271 7.330847,-0.69502 14.171559,-3.99069 19.40262,-9.18155 0.0072,-0.005 0.01453,-0.0102 0.0217,-0.0179 12.247493,-12.25792 12.249643,-32.31515 0,-44.5743 h -0.0054 l -2.786574,-2.78657 46.936373,-46.936383 1.07217,1.072174 v 0.0054 l 3.30907,3.30361 c 0.14234,0.143066 0.29131,0.279252 0.44644,0.408293 5.6701,4.689164 12.84527,7.222212 20.24621,7.222212 17.33061,0.0076 31.51224,-14.184233 31.51224,-31.50679 V 47.66972 Z M 354.67842,283.80892 c 0,0 1.32664,-0.1234 2.88454,0.62589 0.298,0.14306 0.59827,0.62416 0.91434,0.90344 -1.06622,-0.90942 -2.39994,-1.44634 -3.79888,-1.52933 z m 4.99082,2.71039 c 0.83622,1.15394 1.50213,2.47264 1.50213,3.64103 -0.10832,-1.34075 -0.63357,-2.61395 -1.50213,-3.64103 z"
     id="path13"
     sodipodi:nodetypes="cccsssccccccccccccccsccccccccccccccccscccccccccccccccsssccccccccccsccccccccscccccccccscccccccccccccccsscccccccccccccccsccccccccccccccccsccccccccc" />
  <path
     style="baseline-shift:baseline;display:inline;overflow:visible;vector-effect:none;fill:#f69898;fill-opacity:1;stroke-width:2.78657;stroke-linecap:round;stroke-linejoin:round;paint-order:markers stroke fill;enable-background:accumulate;stop-color:#000000"
     d="m 255.95834,41.219166 -79.2347,0.0076 v 10.393928 c 0,13.84272 -11.22377,25.074027 -25.07187,25.064672 -5.92519,0 -11.65402,-2.036282 -16.14099,-5.747037 l -3.30769,-3.304711 -5.62897,-5.628986 -56.044891,56.046348 7.344007,7.33968 c 9.791598,9.7992 9.789827,25.66909 0,35.46726 -4.202301,4.17001 -9.679622,6.79033 -15.474264,7.3397 H 57.717527 49.75863 v 79.26505 h 10.388182 c 13.84804,0 25.071331,11.22165 25.070438,25.07334 0,5.91725 -2.035045,11.63611 -5.731206,16.11219 l -8.956815,8.96112 56.044891,56.04634 7.34977,-7.34976 c 9.79429,-9.78088 25.66193,-9.77148 35.44998,0 4.25271,4.27812 6.85608,9.88105 7.3397,15.7896 v 4.35892 7.96031 h 79.26349 v -10.48321 c 0.0901,-13.80668 11.25973,-24.97399 25.0762,-24.97399 5.91533,0 11.63082,2.03557 16.11507,5.72837 l 8.95395,8.9597 56.04491,-56.04492 -7.3498,-7.35117 c 0,0 -0.0894,0.002 -0.0894,-0.0876 -9.69974,-9.7985 -9.67139,-25.60507 0.0894,-35.36791 4.27978,-4.25076 9.88511,-6.86351 15.79685,-7.34114 h 4.3603 7.96323 v -79.26368 h -10.38818 c -13.84712,0 -25.07129,-11.23061 -25.07048,-25.07331 0,-6.02504 2.13255,-11.82547 5.9602,-16.34693 l 3.10032,-3.09745 5.62756,-5.62896 -56.04491,-56.046324 -7.34546,7.34834 h -0.0893 c -9.79885,9.726748 -25.62181,9.700076 -35.39094,0 -4.15919,-4.187357 -6.77168,-9.644333 -7.33825,-15.408031 z m -59.45482,50.296398 a 117.98189,117.98189 0 0 0 -12.4805,2.903036 c 4.08467,-1.162606 8.22804,-2.182566 12.4805,-2.903036 z M 247.17,93.931886 c 12.34517,3.332121 23.89259,8.606234 34.28214,15.492994 3.46426,2.29628 6.75434,4.82275 9.94898,7.46208 A 117.98189,117.98189 0 0 0 281.45214,109.42488 117.98189,117.98189 0 0 0 247.17,93.931886 Z m -66.32219,1.483199 a 117.98189,117.98189 0 0 0 -9.25201,3.350897 c 3.02477,-1.242981 6.10727,-2.358178 9.25201,-3.350897 z m -12.38258,4.652635 a 117.98189,117.98189 0 0 0 -11.34866,5.71396 c 3.65037,-2.12361 7.4632,-3.98447 11.34866,-5.71396 z m 125.96997,19.46885 c 2.21665,1.96174 4.35348,4.00025 6.41666,6.12145 a 117.98189,117.98189 0 0 0 -6.41666,-6.12145 z m 9.20883,9.03169 c 2.78619,3.06649 5.464,6.23225 7.91857,9.58034 a 117.98189,117.98189 0 0 0 -7.91857,-9.58034 z m -188.44593,18.517 a 117.98189,117.98189 0 0 0 -6.49441,12.6533 c 1.9454,-4.34756 4.05725,-8.60336 6.49441,-12.6533 z m 205.03041,4.99681 c 0.91609,1.70295 1.66201,3.48974 2.49554,5.2416 a 117.98189,117.98189 0 0 0 -2.49554,-5.2416 z m -212.9677,11.13696 a 117.98189,117.98189 0 0 0 -3.67921,10.36803 c 1.07135,-3.53135 2.29415,-6.98541 3.67921,-10.36803 z m 219.71125,4.07954 c 0.75223,2.05108 1.41943,4.12245 2.0592,6.22512 a 117.98189,117.98189 0 0 0 -2.0592,-6.22512 z m -224.4719,9.87696 a 117.98189,117.98189 0 0 0 -2.957767,14.02564 c 0.675057,-4.78612 1.726287,-9.44204 2.957767,-14.02564 z m 229.20808,7.00849 c 0.4693,2.29774 1.02576,4.55483 1.35938,6.89908 a 117.98189,117.98189 0 0 0 -1.35938,-6.89908 z m 1.69202,9.49826 c 0.52253,4.36445 0.89475,8.77498 0.92733,13.27253 a 117.98189,117.98189 0 0 0 -0.92733,-13.27253 z m 0.93021,14.14372 c -2e-5,4.79951 -0.37173,9.50579 -0.9288,14.15521 a 117.98189,117.98189 0 0 0 0.9288,-14.15521 z m -1.46879,17.6933 c -0.55617,3.6878 -1.27215,7.31308 -2.16146,10.88067 a 117.98189,117.98189 0 0 0 2.16146,-10.88067 z m -230.70424,11.96211 a 117.98189,117.98189 0 0 0 4.62673,14.04577 c -1.8176,-4.55287 -3.38064,-9.23389 -4.62673,-14.04577 z m 227.68884,2.23632 c -1.24602,4.44127 -2.67866,8.80063 -4.41503,13.0133 a 117.98189,117.98189 0 0 0 4.41503,-13.0133 z m -222.95555,12.13058 a 117.98189,117.98189 0 0 0 6.27409,13.10115 c -2.34151,-4.22062 -4.45544,-8.58333 -6.27409,-13.10115 z m 218.44552,1.14337 c -1.84734,4.45205 -3.99752,8.73515 -6.35475,12.89236 a 117.98189,117.98189 0 0 0 6.35475,-12.89236 z m -211.89639,12.52658 a 117.98189,117.98189 0 0 0 8.23106,12.69794 c -3.00783,-4.03923 -5.75133,-8.28396 -8.23106,-12.69794 z m 203.96195,2.96642 c -1.92736,3.20313 -3.9943,6.30105 -6.20785,9.29666 a 117.98189,117.98189 0 0 0 6.20785,-9.29666 z m -8.4197,12.25585 c -5.75768,7.30394 -12.34477,13.8962 -19.64451,19.65889 a 117.98189,117.98189 0 0 0 19.64451,-19.65889 z m -165.83068,19.60852 a 117.98189,117.98189 0 0 0 11.7605,8.0928 c -4.07087,-2.49143 -8.03487,-5.1412 -11.7605,-8.0928 z m 143.23128,2.26222 c -2.99736,2.21823 -6.09693,4.28934 -9.30242,6.22083 a 117.98189,117.98189 0 0 0 9.30242,-6.22083 z m -129.4591,7.06035 a 117.98189,117.98189 0 0 0 12.59138,6.39358 c -4.34316,-1.88214 -8.53782,-4.02288 -12.59138,-6.39358 z m 117.5618,0.73871 c -4.15628,2.3605 -8.43943,4.51425 -12.89091,6.36482 a 117.98189,117.98189 0 0 0 12.89091,-6.36482 z m -103.44977,6.26978 a 117.98189,117.98189 0 0 0 13.3373,4.67139 c -4.57055,-1.28524 -9.00964,-2.86735 -13.3373,-4.67139 z m 90.34287,0.17423 c -4.22657,1.74737 -8.60082,3.1874 -13.05794,4.44095 a 117.98189,117.98189 0 0 0 13.05794,-4.44095 z m -76.37341,4.693 a 117.98189,117.98189 0 0 0 13.91907,2.87857 c -4.73276,-0.70203 -9.38715,-1.63194 -13.91907,-2.87857 z m 60.00634,0.60045 c -3.55702,0.88937 -7.17226,1.60759 -10.84898,2.16579 a 117.98189,117.98189 0 0 0 10.84898,-2.16579 z m -43.34407,2.64387 a 117.98189,117.98189 0 0 0 14.1437,1.00652 c -4.79795,-0.023 -9.49727,-0.42835 -14.1437,-1.00652 z m 28.91236,0.0705 c -4.64723,0.5596 -9.34921,0.93435 -14.14658,0.93742 a 117.98189,117.98189 0 0 0 14.14658,-0.93742 z"
     id="path14" />
  <path
     id="path15"
     style="baseline-shift:baseline;display:inline;overflow:visible;vector-effect:none;fill:#d71313;fill-opacity:1;stroke-width:2.78657;stroke-linecap:round;stroke-linejoin:round;paint-order:markers stroke fill;enable-background:accumulate;stop-color:#000000"
     d="m 255.95834,41.219166 -79.2347,0.0076 v 10.393928 c 0,13.84272 -11.22377,25.074027 -25.07187,25.064672 -5.92519,0 -11.65402,-2.036282 -16.14099,-5.747037 l -3.30769,-3.304711 -5.62897,-5.628986 -56.044891,56.046348 7.344007,7.33968 c 9.791598,9.7992 9.789827,25.66909 0,35.46726 -4.202301,4.17001 -9.679622,6.79033 -15.474264,7.3397 H 57.717527 49.75863 v 79.26505 h 10.388182 c 13.84804,0 25.071331,11.22165 25.070438,25.07334 0,5.91725 -2.035045,11.63611 -5.731206,16.11219 l -8.956815,8.96112 26.809962,26.81143 L 255.95834,49.684893 Z m 50.16394,20.777792 -5.49793,5.500789 -22.85429,39.584233 c 1.24272,0.75885 2.47029,1.53964 3.68208,2.3429 1.32404,0.87764 2.62198,1.78902 3.89953,2.72736 l 25.96037,-44.964094 z m -24.67014,47.427922 a 117.98189,117.98189 0 0 0 -3.68352,-2.34001 L 143.00455,340.50349 c 3.63101,-1.32913 7.50797,-1.79224 11.30978,-1.38814 l 131.0359,-226.96023 a 117.98189,117.98189 0 0 0 -3.89809,-2.73024 z M 315.80051,71.675215 160.53945,340.59566 c 3.22106,1.21787 6.24094,3.12195 8.83442,5.71107 1.15023,1.15712 2.17912,2.4118 3.07872,3.74256 l 15.95236,-27.63078 c -1.14046,-0.27202 -2.27384,-0.56144 -3.39985,-0.87117 a 117.98189,117.98189 0 0 0 3.40272,0.86686 L 326.81365,82.688346 Z M 331.30075,87.176821 175.671,356.73522 c 1.4e-4,4.4e-4 -1.3e-4,6.8e-4 0,10e-4 0.54031,1.73718 0.89313,3.534 1.04257,5.35965 v 4.35892 7.96031 h 79.26349 v -10.48321 c 0.0901,-13.80668 11.25973,-24.97398 25.0762,-24.97398 5.91533,0 11.63082,2.03556 16.11507,5.72836 l 8.95395,8.95971 56.04491,-56.04493 -7.3498,-7.3512 c 0,0 -0.0894,0.002 -0.0894,-0.0879 -9.69974,-9.79851 -9.67126,-25.60507 0.0894,-35.36791 4.27978,-4.25076 9.88511,-6.86351 15.79685,-7.34114 h 4.3603 7.96323 v -79.26335 h -10.38818 c -13.84712,0 -25.07129,-11.23061 -25.07048,-25.07331 0,-6.02504 2.13255,-11.82547 5.9602,-16.34693 l 3.10032,-3.09745 5.62756,-5.62896 z" />
  <circle
     style="fill:#000000;fill-opacity:1;stroke-width:6.10855;stroke-linecap:round;stroke-linejoin:round;paint-order:markers fill stroke"
     id="circle7"
     cx="216.34816"
     cy="207.81734"
     r="116.35271" />
  <path
     style="fill:#d71313;fill-opacity:1;stroke:none;stroke-width:25.9152;stroke-linecap:round;stroke-linejoin:round;paint-order:markers stroke fill"
     d="m 265.95154,221.39788 c -0.0437,0 -0.0873,0.0153 -0.12086,0.0498 l -79.92533,79.92535 c 9.82269,3.25142 20.09616,4.9356 30.44284,4.99068 35.18831,-0.0935 67.65684,-18.94246 85.18649,-49.45374 l -35.46227,-35.46223 c -0.0335,-0.0335 -0.0772,-0.0498 -0.12084,-0.0498 z"
     id="path10" />
  <path
     style="fill:#ffffff;fill-opacity:1;stroke:none;stroke-width:25.9152;stroke-linecap:round;stroke-linejoin:round;paint-order:markers stroke fill"
     d="m 224.49378,174.47649 v 66.63641 l 33.32274,-33.32274 z"
     id="path9" />
  <path
     style="fill:#d71313;fill-opacity:1;stroke:none;stroke-width:25.9152;stroke-linecap:round;stroke-linejoin:round;paint-order:markers stroke fill"
     d="M 170.67788,126.05019 V 289.5407 l 38.64737,-38.64736 v -85.88302 -0.27046 z"
     id="path8-7" />
  <path
     style="fill:#d71313;fill-opacity:1;stroke:none;stroke-width:25.9152;stroke-linecap:round;stroke-linejoin:round;paint-order:markers stroke fill"
     d="m 216.3483,109.27097 c -10.32954,0.0541 -20.5863,1.7323 -30.3946,4.97256 l 123.96833,123.96832 c 3.24024,-9.80827 4.91825,-20.06501 4.97254,-30.39448 -8e-5,-54.42564 -44.12074,-98.54633 -98.54638,-98.5464 z"
     id="path7-5" />
  <path
     id="circle2"
     style="fill:#d71313;fill-opacity:1;stroke-width:5.17372;stroke-linecap:round;stroke-linejoin:round;paint-order:markers fill stroke"
     d="m 155.50956,130.29242 c -23.80545,18.68155 -37.70816,47.2644 -37.70813,77.52495 -3e-5,30.26051 13.90268,58.84339 37.70813,77.52491 z"
     sodipodi:nodetypes="cccc" />
  <path
     style="font-weight:300;font-size:40px;line-height:1.25;font-family:Roboto;-inkscape-font-specification:'Roboto Light';text-align:center;baseline-shift:baseline;text-anchor:middle;white-space:pre;display:inline;overflow:visible;vector-effect:none;fill:#000000;stroke-width:1;stroke-linecap:round;stroke-linejoin:bevel;enable-background:accumulate;stop-color:#000000"
     d="m 449.83301,276.65086 q 1.06784,0 2.00755,-0.4129 0.95395,-0.4129 1.56617,-1.21022 0.62648,-0.79733 0.7119,-1.96484 h 1.63736 q -0.0712,1.4665 -0.89699,2.60554 -0.82579,1.13903 -2.14993,1.79398 -1.30989,0.65495 -2.87606,0.65495 -1.62313,0 -2.86182,-0.58376 -1.22447,-0.59799 -2.05027,-1.63737 -0.8258,-1.0536 -1.25293,-2.44892 -0.41291,-1.39532 -0.41291,-3.01845 v -0.59798 q 0,-1.62313 0.41291,-3.01845 0.42713,-1.40955 1.25293,-2.44892 0.8258,-1.05361 2.05027,-1.63737 1.22445,-0.58376 2.84759,-0.58376 1.65159,0 2.96148,0.66919 1.30989,0.66918 2.10722,1.89365 0.79732,1.22447 0.86851,2.90453 h -1.63736 q -0.0711,-1.23869 -0.65495,-2.13568 -0.58375,-0.89699 -1.5377,-1.38108 -0.95394,-0.4841 -2.1072,-0.4841 -1.3099,0 -2.24961,0.51258 -0.92546,0.49832 -1.50921,1.38108 -0.56952,0.86851 -0.84005,1.9933 -0.25628,1.11056 -0.25628,2.33503 v 0.59798 q 0,1.22447 0.25628,2.34927 0.27053,1.11056 0.84005,1.99331 0.58375,0.86851 1.50921,1.38108 0.93971,0.49833 2.26384,0.49833 z m 11.03441,-11.67511 v 12.85686 h -1.69432 v -15.40545 h 1.66583 z m 5.46736,-2.66249 -0.0569,1.56617 q -0.27052,-0.0427 -0.54104,-0.0712 -0.27052,-0.0285 -0.59799,-0.0285 -1.09632,0 -1.93637,0.41289 -0.84003,0.39867 -1.40954,1.1248 -0.55529,0.71191 -0.85428,1.66585 -0.299,0.95394 -0.34172,2.06449 l -0.62647,0.22781 q 0,-1.50922 0.31324,-2.80488 0.31323,-1.29564 0.95394,-2.26382 0.64071,-0.98242 1.62313,-1.52346 0.99666,-0.54105 2.34926,-0.54105 0.31324,0 0.62647,0.0569 0.32747,0.0427 0.49832,0.1139 z m 8.35767,15.80411 q -1.50922,0 -2.77639,-0.55528 -1.26718,-0.55528 -2.19265,-1.56618 -0.92547,-1.01089 -1.43803,-2.39197 -0.51256,-1.39532 -0.51256,-3.04692 v -0.61223 q 0,-1.77974 0.52679,-3.21777 0.54106,-1.43803 1.45228,-2.46317 0.92546,-1.03937 2.10721,-1.58041 1.19599,-0.54105 2.52012,-0.54105 1.4665,0 2.59131,0.52681 1.13903,0.51257 1.92212,1.46651 0.78309,0.9397 1.18174,2.23536 0.39867,1.28141 0.39867,2.83334 v 1.03938 h -11.66088 v -1.46651 h 9.95232 v -0.18509 q -0.0285,-1.29566 -0.5268,-2.42046 -0.48409,-1.13903 -1.45228,-1.85093 -0.95393,-0.7119 -2.4062,-0.7119 -1.09632,0 -1.99332,0.45562 -0.89699,0.45561 -1.55193,1.30989 -0.6407,0.84004 -0.99666,2.00755 -0.35594,1.15328 -0.35594,2.56283 v 0.61223 q 0,1.26718 0.38442,2.37773 0.38442,1.11056 1.08208,1.9506 0.69766,0.82581 1.66585,1.3099 0.96817,0.46985 2.14992,0.46985 1.35261,0 2.40621,-0.49833 1.06785,-0.51256 1.90789,-1.60889 l 1.06784,0.8258 q -0.51256,0.74037 -1.25293,1.36684 -0.74038,0.61224 -1.77975,0.99666 -1.03937,0.37019 -2.42045,0.37019 z m 18.48085,-3.04692 v -7.94478 q 0,-1.09632 -0.45562,-1.89364 -0.45562,-0.79733 -1.33836,-1.22446 -0.88275,-0.42714 -2.17841,-0.42714 -1.19599,0 -2.13568,0.42714 -0.92547,0.41289 -1.46651,1.1248 -0.52681,0.69766 -0.52681,1.55193 l -1.69432,-0.0142 q 0,-0.86851 0.41291,-1.68008 0.42714,-0.81156 1.21023,-1.45226 0.78308,-0.64071 1.86516,-1.0109 1.09632,-0.38442 2.42045,-0.38442 1.63737,0 2.89031,0.55527 1.26718,0.55529 1.97907,1.66585 0.72613,1.11055 0.72613,2.79063 v 7.44644 q 0,0.79733 0.1139,1.6516 0.12814,0.85428 0.35595,1.39533 v 0.18508 h -1.82246 q -0.17085,-0.51256 -0.27052,-1.28141 -0.0854,-0.78309 -0.0854,-1.48074 z m 0.39866,-6.20775 0.0285,1.30989 h -3.33168 q -1.30989,0 -2.34926,0.24205 -1.02513,0.2278 -1.73703,0.66919 -0.71189,0.44137 -1.09632,1.08207 -0.37019,0.62648 -0.37019,1.4238 0,0.8258 0.41291,1.50922 0.41289,0.68342 1.19598,1.08209 0.78309,0.39866 1.85094,0.39866 1.40955,0 2.49163,-0.51257 1.09633,-0.5268 1.80822,-1.38108 0.7119,-0.85428 0.95394,-1.86517 l 0.74037,0.98242 q -0.18509,0.69766 -0.68341,1.45227 -0.4841,0.75461 -1.26718,1.40956 -0.76885,0.64071 -1.83669,1.0536 -1.05361,0.39867 -2.40621,0.39867 -1.49498,0 -2.61978,-0.56952 -1.12481,-0.58376 -1.73704,-1.56617 -0.61223,-0.99666 -0.61223,-2.24961 0,-1.12479 0.48409,-2.02178 0.4841,-0.91123 1.39533,-1.5377 0.91122,-0.64071 2.20687,-0.96818 1.30989,-0.34171 2.93302,-0.34171 z m 15.8753,5.97994 v -18.87951 h 1.70856 v 21.86948 h -1.59465 z m -10.69269,-4.55614 v -0.299 q 0,-1.79398 0.4129,-3.23201 0.4129,-1.45227 1.18175,-2.4774 0.78308,-1.03937 1.87941,-1.58041 1.09632,-0.55529 2.47741,-0.55529 1.35259,0 2.39197,0.44138 1.03936,0.44138 1.77973,1.26718 0.75462,0.8258 1.21023,1.96483 0.46986,1.13904 0.68343,2.53436 v 3.80153 q -0.17086,1.29565 -0.62648,2.39197 -0.45562,1.09632 -1.21022,1.89365 -0.75461,0.79732 -1.82245,1.2387 -1.05362,0.44138 -2.4347,0.44138 -1.36684,0 -2.46315,-0.56952 -1.09633,-0.58376 -1.86518,-1.62313 -0.76885,-1.0536 -1.18175,-2.4774 -0.4129,-1.43803 -0.4129,-3.16082 z m 1.72279,-0.299 v 0.299 q 0,1.33837 0.27052,2.49164 0.27052,1.15327 0.82581,2.02179 0.55527,0.85428 1.40954,1.33836 0.85428,0.46986 2.00756,0.46986 1.46651,0 2.46316,-0.55528 0.99665,-0.56952 1.59465,-1.49499 0.598,-0.93971 0.86852,-2.05027 v -4.41375 q -0.17086,-0.75462 -0.49833,-1.53771 -0.32748,-0.78308 -0.897,-1.43802 -0.55527,-0.66918 -1.42378,-1.06785 -0.85428,-0.4129 -2.07875,-0.4129 -1.1675,0 -2.03603,0.4841 -0.85427,0.48408 -1.40954,1.3526 -0.55529,0.85427 -0.82581,2.00754 -0.27052,1.15328 -0.27052,2.50588 z m 14.2237,0.37019 v -0.45562 q 0,-1.68007 0.4841,-3.10387 0.49832,-1.42379 1.39531,-2.46315 0.89699,-1.03938 2.16417,-1.6089 1.26718,-0.58376 2.81912,-0.58376 1.56616,0 2.83334,0.58376 1.28141,0.56952 2.17841,1.6089 0.91122,1.03936 1.39531,2.46315 0.4841,1.4238 0.4841,3.10387 v 0.45562 q 0,1.68008 -0.4841,3.10387 -0.48409,1.40956 -1.39531,2.46316 -0.897,1.03937 -2.16417,1.62313 -1.25294,0.56952 -2.81912,0.56952 -1.56617,0 -2.83334,-0.56952 -1.26718,-0.58376 -2.17841,-1.62313 -0.89699,-1.0536 -1.39531,-2.46316 -0.4841,-1.42379 -0.4841,-3.10387 z m 1.70856,-0.45562 v 0.45562 q 0,1.26718 0.32747,2.40621 0.34171,1.1248 0.99666,2.00755 0.66918,0.86851 1.63736,1.38108 0.96818,0.49833 2.22111,0.49833 1.25295,0 2.20689,-0.49833 0.96818,-0.51257 1.62312,-1.38108 0.65495,-0.88275 0.98242,-2.00755 0.34171,-1.13903 0.34171,-2.40621 v -0.45562 q 0,-1.25293 -0.34171,-2.37772 -0.32747,-1.12481 -0.99666,-2.00756 -0.65494,-0.88276 -1.62312,-1.39531 -0.96818,-0.51258 -2.22111,-0.51258 -1.23871,0 -2.2069,0.51258 -0.95393,0.51255 -1.62311,1.39531 -0.65495,0.88275 -0.99666,2.00756 -0.32747,1.12479 -0.32747,2.37772 z m 24.36111,-4.51343 v 18.36695 h -1.70855 v -21.32843 h 1.59464 z m 10.70693,4.59886 v 0.299 q 0,1.72279 -0.39866,3.16082 -0.38443,1.4238 -1.13903,2.4774 -0.75461,1.03937 -1.85094,1.62313 -1.08208,0.56952 -2.49164,0.56952 -1.38108,0 -2.46316,-0.42714 -1.08209,-0.42714 -1.85093,-1.21023 -0.76885,-0.79733 -1.2387,-1.86517 -0.46985,-1.06784 -0.64071,-2.33502 v -3.92967 q 0.21357,-1.39532 0.69766,-2.53436 0.48409,-1.13903 1.2387,-1.96483 0.75461,-0.8258 1.80822,-1.26718 1.06784,-0.44138 2.42045,-0.44138 1.40955,0 2.50587,0.55529 1.11057,0.54104 1.86518,1.58041 0.7546,1.02513 1.13903,2.4774 0.39866,1.43803 0.39866,3.23201 z m -1.70855,0.299 v -0.299 q 0,-1.3526 -0.28476,-2.50588 -0.27053,-1.15327 -0.84004,-2.00754 -0.55528,-0.86852 -1.42379,-1.3526 -0.85428,-0.4841 -2.03603,-0.4841 -1.22447,0 -2.09297,0.4129 -0.85428,0.39867 -1.4238,1.06785 -0.55528,0.65494 -0.88275,1.43802 -0.32748,0.78309 -0.48409,1.53771 v 4.5419 q 0.27052,1.08208 0.86852,1.99331 0.59799,0.91123 1.59465,1.46651 0.99665,0.55528 2.44892,0.55528 1.16751,0 2.02179,-0.48409 0.85427,-0.49833 1.40955,-1.3526 0.56951,-0.86852 0.84004,-2.02179 0.28476,-1.16751 0.28476,-2.50588 z m 4.55613,0.0712 v -0.45562 q 0,-1.68008 0.4841,-3.10388 0.49833,-1.42379 1.39532,-2.46316 0.89699,-1.03936 2.16416,-1.60888 1.26718,-0.58377 2.81912,-0.58377 1.56617,0 2.83335,0.58377 1.28141,0.56952 2.1784,1.60888 0.91123,1.03937 1.39532,2.46316 0.48409,1.4238 0.48409,3.10388 v 0.45562 q 0,1.68006 -0.48409,3.10386 -0.48409,1.40956 -1.39532,2.46317 -0.89699,1.03937 -2.16417,1.62312 -1.25293,0.56952 -2.81911,0.56952 -1.56617,0 -2.83334,-0.56952 -1.26718,-0.58375 -2.17841,-1.62312 -0.89699,-1.05361 -1.39532,-2.46317 -0.4841,-1.4238 -0.4841,-3.10386 z m 1.70857,-0.45562 v 0.45562 q 0,1.26717 0.32747,2.4062 0.3417,1.1248 0.99665,2.00755 0.66919,0.86851 1.63736,1.38108 0.96818,0.49833 2.22112,0.49833 1.25295,0 2.20689,-0.49833 0.96818,-0.51257 1.62311,-1.38108 0.65495,-0.88275 0.98243,-2.00755 0.34171,-1.13903 0.34171,-2.4062 v -0.45562 q 0,-1.25294 -0.34171,-2.37774 -0.32748,-1.1248 -0.99666,-2.00755 -0.65494,-0.88275 -1.62313,-1.39532 -0.96818,-0.51256 -2.22111,-0.51256 -1.2387,0 -2.20688,0.51256 -0.95394,0.51257 -1.62313,1.39532 -0.65495,0.88275 -0.99665,2.00755 -0.32747,1.1248 -0.32747,2.37774 z m 17.27062,-4.92633 v 12.85686 h -1.69432 v -15.40545 h 1.66584 z m 5.46736,-2.6625 -0.0569,1.56618 q -0.27052,-0.0428 -0.54104,-0.0712 -0.27052,-0.0285 -0.59799,-0.0285 -1.09632,0 -1.93637,0.4129 -0.84004,0.39866 -1.40955,1.12479 -0.55528,0.7119 -0.85428,1.66584 -0.29899,0.95394 -0.34171,2.0645 l -0.62647,0.22782 q 0,-1.50923 0.31324,-2.80488 0.31323,-1.29566 0.95394,-2.26383 0.64071,-0.98242 1.62313,-1.52346 0.99666,-0.54105 2.34926,-0.54105 0.31323,0 0.62646,0.0569 0.32748,0.0427 0.49833,0.1139 z m 15.83259,15.51936 h -4.68428 l 0.0285,-1.50922 h 4.65581 q 2.23535,0 3.84424,-0.99666 1.62312,-0.99665 2.50588,-2.7764 0.88275,-1.79398 0.88275,-4.14324 v -1.92211 q 0,-1.79399 -0.51257,-3.24626 -0.49833,-1.45227 -1.43803,-2.47741 -0.93971,-1.03936 -2.24959,-1.59464 -1.29566,-0.55528 -2.90454,-0.55528 h -4.89785 v -1.50923 h 4.89785 q 1.93635,0 3.55948,0.66919 1.62312,0.65495 2.80488,1.90789 1.19598,1.2387 1.83669,2.97573 0.65495,1.73702 0.65495,3.87272 v 1.8794 q 0,2.13569 -0.65495,3.87272 -0.64071,1.73704 -1.83669,2.97574 -1.196,1.23869 -2.84759,1.90787 -1.63737,0.66919 -3.64491,0.66919 z m -3.91543,-20.73045 v 20.73045 h -1.75127 v -20.73045 z m 26.32595,17.96829 v -7.94477 q 0,-1.09632 -0.45561,-1.89365 -0.45562,-0.79732 -1.33837,-1.22446 -0.88275,-0.42714 -2.17841,-0.42714 -1.19598,0 -2.13569,0.42714 -0.92546,0.4129 -1.4665,1.12479 -0.52681,0.69767 -0.52681,1.55194 l -1.69431,-0.0142 q 0,-0.86851 0.4129,-1.68008 0.42714,-0.81156 1.21022,-1.45226 0.78309,-0.64071 1.86517,-1.01089 1.09632,-0.38443 2.42045,-0.38443 1.63737,0 2.8903,0.55527 1.26718,0.55529 1.97908,1.66584 0.72613,1.11057 0.72613,2.79064 v 7.44645 q 0,0.79732 0.1139,1.65159 0.12815,0.85428 0.35595,1.39532 v 0.1851 h -1.82245 q -0.17086,-0.51257 -0.27052,-1.28141 -0.0854,-0.78309 -0.0854,-1.48075 z m 0.39866,-6.20774 0.0285,1.30988 h -3.33166 q -1.30989,0 -2.34928,0.24205 -1.02512,0.22781 -1.73702,0.66918 -0.7119,0.44139 -1.09632,1.08209 -0.37019,0.62647 -0.37019,1.4238 0,0.82579 0.41291,1.50921 0.4129,0.68342 1.19598,1.08209 0.78309,0.39866 1.85094,0.39866 1.40955,0 2.49164,-0.51257 1.09632,-0.5268 1.80821,-1.38108 0.7119,-0.85427 0.95395,-1.86517 l 0.74036,0.98243 q -0.18508,0.69765 -0.68342,1.45227 -0.48408,0.7546 -1.26717,1.40955 -0.76885,0.64071 -1.83669,1.0536 -1.05361,0.39867 -2.40622,0.39867 -1.49498,0 -2.61978,-0.56952 -1.12479,-0.58375 -1.73703,-1.56617 -0.61223,-0.99666 -0.61223,-2.2496 0,-1.1248 0.4841,-2.02179 0.48408,-0.91123 1.39531,-1.5377 0.91123,-0.64071 2.20688,-0.96818 1.30989,-0.3417 2.93302,-0.3417 z m 7.56034,-3.14659 v 12.11649 h -1.69431 v -15.40545 h 1.62313 z m -0.37018,3.45982 -0.75461,-0.42714 q 0.0711,-1.36684 0.54104,-2.56283 0.46985,-1.19598 1.26718,-2.10721 0.81156,-0.91123 1.90788,-1.42379 1.09632,-0.51258 2.42044,-0.51258 1.15329,0 2.06451,0.31324 0.91123,0.31324 1.5377,0.99666 0.64071,0.66918 0.96818,1.75127 0.34172,1.06785 0.34172,2.5913 v 10.03775 h -1.70856 v -10.05199 q 0,-1.5804 -0.44138,-2.4774 -0.44137,-0.91123 -1.25293,-1.29565 -0.81157,-0.38443 -1.92213,-0.38443 -1.22446,0 -2.14993,0.54104 -0.91122,0.52681 -1.5377,1.38108 -0.61222,0.84005 -0.9397,1.80822 -0.32748,0.95395 -0.34171,1.82246 z m 20.54535,-6.74878 v 1.39532 h -7.7312 v -1.39532 z m -4.89786,-3.95815 h 1.70857 v 15.60478 q 0,1.06785 0.27051,1.62312 0.28475,0.54105 0.74037,0.72614 0.46985,0.17085 0.99665,0.17085 0.38444,0 0.72615,-0.0427 0.35595,-0.0569 0.65493,-0.0997 l 0.0712,1.43803 q -0.31323,0.0997 -0.8258,0.15661 -0.49833,0.0712 -0.99666,0.0712 -0.98242,0 -1.73703,-0.3702 -0.75461,-0.37018 -1.18175,-1.25293 -0.42713,-0.88275 -0.42713,-2.42045 z m 14.4088,19.64836 q -1.50922,0 -2.7764,-0.55528 -1.26717,-0.55528 -2.19264,-1.56618 -0.92547,-1.01089 -1.43803,-2.39197 -0.51257,-1.39531 -0.51257,-3.04692 v -0.61223 q 0,-1.77974 0.5268,-3.21778 0.54105,-1.43803 1.45228,-2.46316 0.92546,-1.03936 2.10721,-1.58041 1.19599,-0.54105 2.52012,-0.54105 1.4665,0 2.5913,0.52681 1.13904,0.51257 1.92213,1.46651 0.78308,0.9397 1.18174,2.23536 0.39866,1.28141 0.39866,2.83334 v 1.03938 h -11.66087 v -1.46651 h 9.95232 v -0.18509 q -0.0285,-1.29566 -0.52681,-2.42045 -0.48408,-1.13903 -1.45227,-1.85093 -0.95394,-0.7119 -2.4062,-0.7119 -1.09632,0 -1.99332,0.4556 -0.89699,0.45562 -1.55193,1.3099 -0.6407,0.84004 -0.99666,2.00755 -0.35594,1.15327 -0.35594,2.56283 v 0.61223 q 0,1.26717 0.38442,2.37773 0.38442,1.11057 1.08208,1.9506 0.69766,0.82581 1.66584,1.3099 0.96818,0.46985 2.14993,0.46985 1.3526,0 2.40621,-0.49833 1.06784,-0.51257 1.90789,-1.60889 l 1.06784,0.8258 q -0.51256,0.74037 -1.25293,1.36685 -0.74038,0.61223 -1.77975,0.99665 -1.03937,0.37019 -2.42045,0.37019 z m 28.60402,-1.79398 v 1.50922 h -10.74964 v -1.50922 z m -10.22284,-19.22123 v 20.73045 h -1.76551 v -20.73045 z m 19.17851,21.01521 q -1.50922,0 -2.77641,-0.55528 -1.26718,-0.55528 -2.19264,-1.56618 -0.92546,-1.01089 -1.43802,-2.39197 -0.51258,-1.39531 -0.51258,-3.04692 v -0.61223 q 0,-1.77974 0.52681,-3.21778 0.54104,-1.43803 1.45227,-2.46316 0.92547,-1.03936 2.10721,-1.58041 1.19599,-0.54105 2.52012,-0.54105 1.46651,0 2.5913,0.52681 1.13904,0.51257 1.92213,1.46651 0.78309,0.9397 1.18175,2.23536 0.39866,1.28141 0.39866,2.83334 v 1.03938 h -11.66087 v -1.46651 h 9.95232 v -0.18509 q -0.0285,-1.29566 -0.52681,-2.42045 -0.48409,-1.13903 -1.45227,-1.85093 -0.95394,-0.7119 -2.40621,-0.7119 -1.09632,0 -1.99331,0.4556 -0.89699,0.45562 -1.55193,1.3099 -0.64071,0.84004 -0.99666,2.00755 -0.35595,1.15327 -0.35595,2.56283 v 0.61223 q 0,1.26717 0.38442,2.37773 0.38443,1.11057 1.08209,1.9506 0.69765,0.82581 1.66584,1.3099 0.96818,0.46985 2.14992,0.46985 1.3526,0 2.40622,-0.49833 1.06784,-0.51257 1.90788,-1.60889 l 1.06785,0.8258 q -0.51257,0.74037 -1.25294,1.36685 -0.74037,0.61223 -1.77975,0.99665 -1.03936,0.37019 -2.42044,0.37019 z m 8.17257,-7.75967 v -0.45562 q 0,-1.68008 0.48409,-3.10388 0.49833,-1.42379 1.39532,-2.46316 0.897,-1.03936 2.16416,-1.60888 1.26718,-0.58377 2.81912,-0.58377 1.56618,0 2.83336,0.58377 1.28141,0.56952 2.1784,1.60888 0.91123,1.03937 1.39531,2.46316 0.48409,1.4238 0.48409,3.10388 v 0.45562 q 0,1.68006 -0.48409,3.10386 -0.48408,1.40956 -1.39531,2.46317 -0.89699,1.03937 -2.16417,1.62312 -1.25294,0.56952 -2.81911,0.56952 -1.56618,0 -2.83335,-0.56952 -1.26718,-0.58375 -2.17841,-1.62312 -0.89699,-1.05361 -1.39532,-2.46317 -0.48409,-1.4238 -0.48409,-3.10386 z m 1.70856,-0.45562 v 0.45562 q 0,1.26717 0.32747,2.4062 0.34171,1.1248 0.99665,2.00755 0.66919,0.86851 1.63737,1.38108 0.96817,0.49833 2.22112,0.49833 1.25294,0 2.20688,-0.49833 0.96818,-0.51257 1.62312,-1.38108 0.65494,-0.88275 0.98242,-2.00755 0.34171,-1.13903 0.34171,-2.4062 v -0.45562 q 0,-1.25294 -0.34171,-2.37774 -0.32748,-1.1248 -0.99665,-2.00755 -0.65495,-0.88275 -1.62314,-1.39532 -0.96817,-0.51256 -2.22111,-0.51256 -1.2387,0 -2.20688,0.51256 -0.95394,0.51257 -1.62313,1.39532 -0.65494,0.88275 -0.99665,2.00755 -0.32747,1.1248 -0.32747,2.37774 z m 17.27062,-4.18596 v 12.11649 h -1.69432 v -15.40545 h 1.62313 z m -0.37019,3.45982 -0.75462,-0.42714 q 0.0712,-1.36684 0.54105,-2.56283 0.46985,-1.19598 1.26717,-2.10721 0.81157,-0.91123 1.90789,-1.42379 1.09633,-0.51258 2.42045,-0.51258 1.15328,0 2.0645,0.31324 0.91123,0.31324 1.53771,0.99666 0.6407,0.66918 0.96817,1.75127 0.34171,1.06785 0.34171,2.5913 v 10.03775 h -1.70856 v -10.05199 q 0,-1.5804 -0.44137,-2.4774 -0.44138,-0.91123 -1.25294,-1.29565 -0.81156,-0.38443 -1.92212,-0.38443 -1.22446,0 -2.14992,0.54104 -0.91124,0.52681 -1.5377,1.38108 -0.61224,0.84005 -0.93971,1.80822 -0.32747,0.95395 -0.34171,1.82246 z m 20.40297,7.47492 q 1.06784,0 2.00755,-0.4129 0.95394,-0.41289 1.56617,-1.21022 0.62647,-0.79732 0.7119,-1.96484 h 1.63736 q -0.0712,1.4665 -0.89699,2.60554 -0.8258,1.13903 -2.14993,1.79398 -1.30989,0.65495 -2.87606,0.65495 -1.62312,0 -2.86182,-0.58375 -1.22447,-0.598 -2.05027,-1.63737 -0.8258,-1.05361 -1.25294,-2.44892 -0.4129,-1.39533 -0.4129,-3.01845 v -0.59799 q 0,-1.62313 0.4129,-3.01845 0.42714,-1.40955 1.25294,-2.44892 0.8258,-1.05361 2.05027,-1.63736 1.22446,-0.58377 2.84758,-0.58377 1.65159,0 2.96149,0.66919 1.30989,0.66918 2.10722,1.89364 0.79732,1.22447 0.86851,2.90454 h -1.63736 q -0.0712,-1.23869 -0.65494,-2.13568 -0.58376,-0.89699 -1.53771,-1.38108 -0.95394,-0.48409 -2.10721,-0.48409 -1.30989,0 -2.24959,0.51256 -0.92547,0.49833 -1.50923,1.38108 -0.56951,0.86852 -0.84003,1.99331 -0.25629,1.11056 -0.25629,2.33503 v 0.59799 q 0,1.22446 0.25629,2.34926 0.27052,1.11056 0.84003,1.99331 0.58376,0.86851 1.50923,1.38108 0.9397,0.49833 2.26383,0.49833 z m 11.24797,-14.2237 v 15.40545 h -1.70855 v -15.40545 z m -2.00755,-4.45647 q 0,-0.48409 0.299,-0.81157 0.31324,-0.34171 0.86851,-0.34171 0.54105,0 0.85427,0.34171 0.32749,0.32748 0.32749,0.81157 0,0.46985 -0.32749,0.81156 -0.31322,0.32747 -0.85427,0.32747 -0.55527,0 -0.86851,-0.32747 -0.299,-0.34171 -0.299,-0.81156 z m 8.34343,7.74543 v 12.11649 h -1.69431 v -15.40545 h 1.62313 z m -0.37019,3.45982 -0.7546,-0.42714 q 0.0712,-1.36684 0.54103,-2.56283 0.46985,-1.19598 1.26718,-2.10721 0.81157,-0.91123 1.90789,-1.42379 1.09632,-0.51258 2.42045,-0.51258 1.15327,0 2.06451,0.31324 0.91122,0.31324 1.53769,0.99666 0.64071,0.66918 0.96818,1.75127 0.34171,1.06785 0.34171,2.5913 v 10.03775 h -1.70855 v -10.05199 q 0,-1.5804 -0.44138,-2.4774 -0.44138,-0.91123 -1.25294,-1.29565 -0.81156,-0.38443 -1.92212,-0.38443 -1.22446,0 -2.14993,0.54104 -0.91123,0.52681 -1.5377,1.38108 -0.61223,0.84005 -0.9397,1.80822 -0.32747,0.95395 -0.34172,1.82246 z m 16.61568,-6.74878 v 15.40545 h -1.70855 v -15.40545 z m -2.00755,-4.45647 q 0,-0.48409 0.299,-0.81157 0.31324,-0.34171 0.86851,-0.34171 0.54105,0 0.85428,0.34171 0.32748,0.32748 0.32748,0.81157 0,0.46985 -0.32748,0.81156 -0.31323,0.32747 -0.85428,0.32747 -0.55527,0 -0.86851,-0.32747 -0.299,-0.34171 -0.299,-0.81156 z"
     id="path2" />
  <path
     d="m 329.66016,-204.99023 h 6.91406 q 0.0195,0.27343 0.0195,0.58593 0.0195,0.3125 0.0195,0.9375 0,5.50782 -2.42187,8.1836 -2.40235,2.65625 -7.38282,2.65625 -2.92968,0 -5.01953,-0.97657 -2.08984,-0.97656 -3.3789,-2.94921 -0.89844,-1.40625 -1.28907,-3.90625 -0.39062,-2.5 -0.39062,-7.92969 0,-5.42969 0.39062,-7.92969 0.39063,-2.5 1.28907,-3.90625 1.26953,-1.95312 3.33984,-2.92969 2.07031,-0.99609 4.94141,-0.99609 4.9414,0 7.40234,2.75391 2.48047,2.73437 2.48047,8.20312 v 0.29297 l -6.83594,-0.0195 q -0.0391,-3.06641 -0.70312,-4.29688 -0.66407,-1.25 -2.22657,-1.25 -1.69922,0 -2.32422,1.52344 -0.625,1.50391 -0.625,7.98828 v 0.56641 q 0,6.97265 0.625,8.55469 0.625,1.5625 2.32422,1.5625 1.58203,0 2.20703,-1.13282 0.64454,-1.15234 0.64454,-4.25781 z m 23.88671,-0.6836 v -5.42969 q 0,-5 -0.64453,-6.17187 -0.625,-1.19141 -2.28515,-1.19141 -1.6211,0 -2.2461,1.21094 -0.625,1.21094 -0.625,6.15234 v 5.42969 q 0,4.88281 0.625,6.13281 0.625,1.23047 2.28516,1.23047 1.64062,0 2.26562,-1.21093 0.625,-1.21094 0.625,-6.15235 z m -12.96875,-2.71484 q 0,-5.42969 0.39063,-7.92969 0.39062,-2.5 1.28906,-3.90625 1.28906,-1.99219 3.37891,-2.94922 2.08984,-0.97656 5.01953,-0.97656 2.94922,0 5,0.97656 2.07031,0.95703 3.35937,2.94922 0.9375,1.42578 1.32813,3.92578 0.39062,2.5 0.39062,7.91016 0,5.39062 -0.39062,7.91015 -0.39063,2.5 -1.32813,3.92579 -1.26953,1.97265 -3.35937,2.94921 -2.07031,0.97657 -5,0.97657 -2.92969,0 -5.01953,-0.97657 -2.08985,-0.97656 -3.37891,-2.94921 -0.89844,-1.40625 -1.28906,-3.90625 -0.39063,-2.5 -0.39063,-7.92969 z m 31.40625,-2.51953 q 0.17579,0 0.44922,0.0195 0.29297,0.0195 0.42969,0.0195 2.1875,0 3.08594,-0.87891 0.91797,-0.8789 0.91797,-2.96875 0,-1.93359 -0.91797,-2.73437 -0.89844,-0.82031 -3.08594,-0.82031 -0.13672,0 -0.42969,0.0195 -0.27343,0.0195 -0.44922,0.0195 z m -6.95312,17.55859 v -30.07812 h 7.91016 q 3.88671,0 5.64453,0.37109 1.75781,0.35156 2.85156,1.23047 1.28906,1.05469 1.91406,2.59765 0.64453,1.54297 0.64453,3.67188 0,2.59766 -0.91797,4.35547 -0.89843,1.75781 -2.8125,2.89062 3.26172,1.44532 3.4375,6.85547 0,0.0781 0,0.0977 0.0195,0.5664 0.0391,1.64062 0.0781,5.07813 1.67968,6.36719 h -8.22265 q -0.27344,-0.9375 -0.41016,-1.95312 -0.11719,-1.03516 -0.11719,-2.20704 0,-0.72265 0.0391,-1.73828 0.0391,-1.03515 0.0391,-1.34765 0,-2.75391 -0.72266,-3.76953 -0.72265,-1.01563 -2.59765,-1.01563 h -1.44532 v 12.03125 z m 23.4375,0 v -30.07812 h 16.36719 v 5.83984 h -9.375 v 5.52734 h 8.65234 v 6.03516 h -8.65234 v 6.5625 h 9.375 v 6.11328 z"
     id="text1"
     style="font-size:40px;line-height:1.25;font-family:'Swis721 BlkCn BT';-inkscape-font-specification:'Swis721 BlkCn BT';white-space:pre;fill:#d71313;stroke-width:0.574009"
     transform="matrix(1.7421339,0,0,1.7421339,266.88367,643.44819)"
     aria-label="CORE" />
</svg>
